<?xml version="1.0" encoding="UTF-8" standalone="no" ?>
<!DOCTYPE svg PUBLIC "-//W3C//DTD SVG 1.1//EN" "http://www.w3.org/Graphics/SVG/1.1/DTD/svg11.dtd">
<svg xmlns="http://www.w3.org/2000/svg" xmlns:xlink="http://www.w3.org/1999/xlink" version="1.1" width="271" height="85" viewBox="0 0 271 85" xml:space="preserve">
<desc>Created with Fabric.js 3.6.3</desc>
<defs>
</defs>
<g transform="matrix(1 0 0 1 83.6 44.35)"  >
<g style=""   >
		<g transform="matrix(1 0 0 1 -145.5 5.1)"  >
<path style="stroke: none; stroke-width: 1; stroke-dasharray: none; stroke-linecap: butt; stroke-dashoffset: 0; stroke-linejoin: miter; stroke-miterlimit: 4; fill: rgb(173,169,174); fill-rule: nonzero; opacity: 1;"  transform=" translate(-33.1, -50.45)" d="M 44.1 58.1 L 44.1 58.1 c 0 2.5 -1.8 4.4 -4.8 4.4 c -2.4 0 -4 -0.9 -5.2 -2.3 l 2 -1.9 c 0.9 1 1.9 1.6 3.2 1.6 c 1.1 0 1.9 -0.6 1.9 -1.6 c 0 0 0.2 -1.7 -2.6 -1.7 h -1.2 L 37 54.6 l 4.3 -4.3 l -1.7 1.1 h -4.6 V 49 h 9 v 2.2 l -3.4 3.2 C 42.3 54.7 44.1 55.6 44.1 58.1 M 35.8 42.9 c 0 -1.2 0.9 -2.2 2.1 -2.2 h 1.4 l -0.4 0.2 c 0 3.3 -0.1 3.7 0.1 4.2 l -1.1 0 C 36.6 45.1 35.8 44.1 35.8 42.9 L 35.8 42.9 z M 37.8 45.6 h 1.2 v -0.4 c 0.1 0.2 0.2 0.3 0.4 0.4 c 0.4 0.2 0.1 0.1 11.2 0.1 v -5.5 H 50 v 4.9 c 0 0 -10.1 0 -10.3 0 c -0.2 -0.1 -0.2 -0.2 -0.3 -0.4 c 0 -0.3 0 -0.3 0 -4.4 h -1.6 c -1.6 0 -2.7 1.3 -2.7 2.7 v 0 C 35.1 44.4 36.2 45.6 37.8 45.6 M 54.9 39.6 h -1.3 c 0 -0.4 -0.2 -1.2 0.7 -1.2 h 0.4 v 0.4 c -0.4 0 -0.6 -0.1 -0.6 0.2 v 0.1 h 0.8 V 39.6 z M 56.4 45.7 c -0.2 0 -0.3 0 -0.5 -0.1 l 0.2 -0.6 c 0.3 0.1 0.6 0.1 0.7 -0.2 c 0.2 -0.3 0.1 -0.4 0.1 -4.8 h 0.6 c 0 4.1 0 4.2 -0.1 4.7 C 57.3 45.4 57 45.7 56.4 45.7 M 39.4 39.6 h -0.6 V 39 h 0.6 V 39.6 z M 52.3 41.6 c 0.3 -0.5 0.8 -0.8 1.4 -0.8 v 0 h 0.9 l -0.3 0.2 v 2.6 c -0.5 0 -0.8 0 -1.2 -0.1 c -0.6 -0.2 -1 -0.6 -1 -1.3 C 52.1 42 52.2 41.8 52.3 41.6 M 52.3 43.6 c 0.8 0.5 1.8 0.5 1.9 0.5 l 0.2 -0.4 c 0 0.4 0.1 1 -0.3 1.2 c -0.3 0.2 -0.9 0.2 -1.2 0.1 c -0.1 0 -0.3 -0.1 -0.5 -0.2 l -0.2 0.6 c 0.4 0.1 0.7 0.2 1.1 0.2 c 0.6 0 1 -0.1 1.2 -0.4 c 0.3 -0.3 0.4 -0.6 0.4 -1.1 v -4.1 c -0.7 0 -1.3 -0.1 -1.9 0.2 C 51.2 40.9 51.2 42.9 52.3 43.6 M 38.3 39.6 h -0.6 V 39 h 0.6 V 39.6 z M 32.2 40.2 h 0.6 v 5.5 h -0.5 l -3.9 -4.9 l 0.3 0.8 v 4.1 h -0.6 v -5.5 h 0.6 l 3.7 4.7 l -0.3 -0.7 V 40.2 z M 9.5 45.7 l -2.4 -5.5 h 0.7 c 0 0.1 1.9 4.6 2.1 5.1 l -0.1 -0.6 l 1.9 -4.5 h 0.7 L 10 45.7 H 9.5 z M 19.9 40.2 h 0.6 v 5.5 h -0.6 V 40.2 z M 26.5 42.9 c 0 1.2 -0.9 2.2 -2.1 2.2 s -2.2 -1 -2.2 -2.3 v 0 c 0 -1.2 0.9 -2.2 2.1 -2.2 C 25.6 40.6 26.5 41.6 26.5 42.9 L 26.5 42.9 z M 24.4 40.1 c -1.7 0 -2.8 1.3 -2.8 2.8 v 0 c 0 1.5 1.1 2.8 2.8 2.8 s 2.8 -1.3 2.8 -2.8 v 0 C 27.2 41.4 26.1 40.1 24.4 40.1 M 18.9 44.1 L 18.9 44.1 c 0 1 -0.8 1.6 -1.9 1.6 c -0.9 0 -1.6 -0.3 -2.2 -0.9 l 0.4 -0.5 c 0.6 0.5 1.1 0.8 1.9 0.8 c 0.7 0 1.2 -0.4 1.2 -0.9 v 0 c 0 -1.5 -3.3 -0.5 -3.3 -2.6 v 0 c 0 -0.9 0.8 -1.5 1.8 -1.5 c 0.8 0 1.4 0.2 1.9 0.7 l -0.4 0.5 c -1.2 -1 -2.7 -0.6 -2.7 0.3 v 0 c 0 0.5 0.3 0.8 1.5 1.1 C 18.3 42.9 18.9 43.3 18.9 44.1 M 13.8 45.6 h -0.6 v -5.5 h 0.6 V 45.6 z M 49.8 46.2 h 0.6 v 0.6 h -0.6 V 46.2 z M 48.7 46.2 h 0.6 v 0.6 h -0.6 V 46.2 z M 12 59.7 h 5.1 v 2.5 H 7.2 v -2.3 c 4.9 -4.2 6.7 -5 6.7 -6.8 c 0 -1.1 -0.7 -1.7 -1.8 -1.7 c -1 0 -1.7 0.6 -2.7 1.8 l -2.1 -1.7 c 1.3 -1.8 2.6 -2.8 5 -2.8 c 2.8 0 4.6 1.6 4.6 4.1 v 0 c 0 3.1 -2.4 4.1 -6.4 7.4 L 10 60.7 L 12 59.7 z M 55.9 55.6 c 0 2.3 -1.6 4.1 -4 4.1 c -2.4 0 -4 -1.9 -4 -4.2 v 0 c 0 -2.3 1.6 -4.1 4 -4.1 S 55.9 53.3 55.9 55.6 L 55.9 55.6 z M 52 48.7 c -4.1 0 -7.1 3.1 -7.1 6.9 v 0 c 0 3.8 2.9 6.8 7.1 6.8 s 7.1 -3.1 7.1 -6.9 v 0 C 59 51.8 56.1 48.7 52 48.7" stroke-linecap="round" />
</g>
		<g transform="matrix(1 0 0 1 -153.55 3.2)"  >
<path style="stroke: none; stroke-width: 1; stroke-dasharray: none; stroke-linecap: butt; stroke-dashoffset: 0; stroke-linejoin: miter; stroke-miterlimit: 4; fill: rgb(40,55,121); fill-rule: nonzero; opacity: 1;"  transform=" translate(-25.05, -48.55)" d="M 25 47.9 l 0.7 0.6 l -0.6 0.7 l -0.7 -0.6" stroke-linecap="round" />
</g>
		<g transform="matrix(1 0 0 1 -151.35 3.1)"  >
<path style="stroke: none; stroke-width: 1; stroke-dasharray: none; stroke-linecap: butt; stroke-dashoffset: 0; stroke-linejoin: miter; stroke-miterlimit: 4; fill: rgb(177,174,179); fill-rule: nonzero; opacity: 1;"  transform=" translate(-27.25, -48.45)" d="M 26.6 48.5 l 0.7 0.6 l 0.6 -0.7 l -0.7 -0.6" stroke-linecap="round" />
</g>
		<g transform="matrix(1 0 0 1 -152.5 4.05)"  >
<path style="stroke: none; stroke-width: 1; stroke-dasharray: none; stroke-linecap: butt; stroke-dashoffset: 0; stroke-linejoin: miter; stroke-miterlimit: 4; fill: rgb(206,216,55); fill-rule: nonzero; opacity: 1;"  transform=" translate(-26.1, -49.4)" d="M 25.6 49.4 l 0.5 0.5 l 0.5 -0.5 l -0.5 -0.5" stroke-linecap="round" />
</g>
		<g transform="matrix(1 0 0 1 -150.6 4.3)"  >
<path style="stroke: none; stroke-width: 1; stroke-dasharray: none; stroke-linecap: butt; stroke-dashoffset: 0; stroke-linejoin: miter; stroke-miterlimit: 4; fill: rgb(114,184,69); fill-rule: nonzero; opacity: 1;"  transform=" translate(-28, -49.65)" d="M 27.5 49.7 l 0.5 0.5 l 0.5 -0.5 L 28 49.1" stroke-linecap="round" />
</g>
		<g transform="matrix(1 0 0 1 -153.3 4.85)"  >
<path style="stroke: none; stroke-width: 1; stroke-dasharray: none; stroke-linecap: butt; stroke-dashoffset: 0; stroke-linejoin: miter; stroke-miterlimit: 4; fill: rgb(206,216,55); fill-rule: nonzero; opacity: 1;"  transform=" translate(-25.3, -50.2)" d="M 24.8 50.2 l 0.5 0.5 l 0.5 -0.5 l -0.5 -0.5" stroke-linecap="round" />
</g>
		<g transform="matrix(1 0 0 1 -151.6 4.85)"  >
<path style="stroke: none; stroke-width: 1; stroke-dasharray: none; stroke-linecap: butt; stroke-dashoffset: 0; stroke-linejoin: miter; stroke-miterlimit: 4; fill: rgb(43,182,188); fill-rule: nonzero; opacity: 1;"  transform=" translate(-27, -50.2)" d="M 26.5 50.2 l 0.5 0.5 l 0.5 -0.5 L 27 49.7" stroke-linecap="round" />
</g>
		<g transform="matrix(1 0 0 1 -152.4 5.45)"  >
<path style="stroke: none; stroke-width: 1; stroke-dasharray: none; stroke-linecap: butt; stroke-dashoffset: 0; stroke-linejoin: miter; stroke-miterlimit: 4; fill: rgb(114,184,69); fill-rule: nonzero; opacity: 1;"  transform=" translate(-26.2, -50.8)" d="M 25.8 50.8 l 0.4 0.4 l 0.4 -0.4 l -0.4 -0.4" stroke-linecap="round" />
</g>
		<g transform="matrix(1 0 0 1 -151 5.75)"  >
<path style="stroke: none; stroke-width: 1; stroke-dasharray: none; stroke-linecap: butt; stroke-dashoffset: 0; stroke-linejoin: miter; stroke-miterlimit: 4; fill: rgb(92,180,95); fill-rule: nonzero; opacity: 1;"  transform=" translate(-27.6, -51.1)" d="M 27.2 51.1 l 0.4 0.4 l 0.4 -0.4 l -0.4 -0.4" stroke-linecap="round" />
</g>
		<g transform="matrix(1 0 0 1 -147.65 3.4)"  >
<path style="stroke: none; stroke-width: 1; stroke-dasharray: none; stroke-linecap: butt; stroke-dashoffset: 0; stroke-linejoin: miter; stroke-miterlimit: 4; fill: rgb(49,136,201); fill-rule: nonzero; opacity: 1;"  transform=" translate(-30.95, -48.75)" d="M 30.3 48.3 l 1.1 -0.2 l 0.2 1.1 l -1.1 0.2 L 30.3 48.3 z" stroke-linecap="round" />
</g>
		<g transform="matrix(1 0 0 1 -149.25 3.8)"  >
<path style="stroke: none; stroke-width: 1; stroke-dasharray: none; stroke-linecap: butt; stroke-dashoffset: 0; stroke-linejoin: miter; stroke-miterlimit: 4; fill: rgb(31,57,111); fill-rule: nonzero; opacity: 1;"  transform=" translate(-29.35, -49.15)" d="M 28.8 48.8 l 0.9 -0.2 l 0.2 0.9 l -0.9 0.2 L 28.8 48.8 z" stroke-linecap="round" />
</g>
		<g transform="matrix(1 0 0 1 -147.45 5.1)"  >
<path style="stroke: none; stroke-width: 1; stroke-dasharray: none; stroke-linecap: butt; stroke-dashoffset: 0; stroke-linejoin: miter; stroke-miterlimit: 4; fill: rgb(43,182,188); fill-rule: nonzero; opacity: 1;"  transform=" translate(-31.15, -50.45)" d="M 30.6 50.1 l 0.9 -0.2 l 0.2 0.9 L 30.7 51 L 30.6 50.1 z" stroke-linecap="round" />
</g>
		<g transform="matrix(1 0 0 1 -148.9 5.15)"  >
<path style="stroke: none; stroke-width: 1; stroke-dasharray: none; stroke-linecap: butt; stroke-dashoffset: 0; stroke-linejoin: miter; stroke-miterlimit: 4; fill: rgb(206,216,55); fill-rule: nonzero; opacity: 1;"  transform=" translate(-29.7, -50.5)" d="M 29.3 50.2 l 0.7 -0.1 l 0.1 0.7 l -0.7 0.1 L 29.3 50.2 z" stroke-linecap="round" />
</g>
		<g transform="matrix(1 0 0 1 -147.5 6.55)"  >
<path style="stroke: none; stroke-width: 1; stroke-dasharray: none; stroke-linecap: butt; stroke-dashoffset: 0; stroke-linejoin: miter; stroke-miterlimit: 4; fill: rgb(177,174,179); fill-rule: nonzero; opacity: 1;"  transform=" translate(-31.1, -51.9)" d="M 30.7 51.6 l 0.7 -0.1 l 0.1 0.7 l -0.7 0.1 L 30.7 51.6 z" stroke-linecap="round" />
</g>
		<g transform="matrix(1 0 0 1 -150 5.45)"  >
<path style="stroke: none; stroke-width: 1; stroke-dasharray: none; stroke-linecap: butt; stroke-dashoffset: 0; stroke-linejoin: miter; stroke-miterlimit: 4; fill: rgb(43,182,188); fill-rule: nonzero; opacity: 1;"  transform=" translate(-28.6, -50.8)" d="M 28.2 50.5 l 0.7 -0.1 l 0.1 0.7 l -0.7 0.1 L 28.2 50.5 z" stroke-linecap="round" />
</g>
		<g transform="matrix(1 0 0 1 -148.7 6.35)"  >
<path style="stroke: none; stroke-width: 1; stroke-dasharray: none; stroke-linecap: butt; stroke-dashoffset: 0; stroke-linejoin: miter; stroke-miterlimit: 4; fill: rgb(114,184,69); fill-rule: nonzero; opacity: 1;"  transform=" translate(-29.9, -51.7)" d="M 29.5 51.4 l 0.7 -0.1 l 0.1 0.7 l -0.7 0.1 L 29.5 51.4 z" stroke-linecap="round" />
</g>
		<g transform="matrix(1 0 0 1 -149.7 6.35)"  >
<path style="stroke: none; stroke-width: 1; stroke-dasharray: none; stroke-linecap: butt; stroke-dashoffset: 0; stroke-linejoin: miter; stroke-miterlimit: 4; fill: rgb(177,174,179); fill-rule: nonzero; opacity: 1;"  transform=" translate(-28.9, -51.7)" d="M 28.6 51.5 l 0.5 -0.1 l 0.1 0.5 L 28.7 52 L 28.6 51.5 z" stroke-linecap="round" />
</g>
		<g transform="matrix(1 0 0 1 -148.7 7.45)"  >
<path style="stroke: none; stroke-width: 1; stroke-dasharray: none; stroke-linecap: butt; stroke-dashoffset: 0; stroke-linejoin: miter; stroke-miterlimit: 4; fill: rgb(92,180,95); fill-rule: nonzero; opacity: 1;"  transform=" translate(-29.9, -52.8)" d="M 29.6 52.6 l 0.5 -0.1 l 0.1 0.5 l -0.5 0.1 L 29.6 52.6 z" stroke-linecap="round" />
</g>
		<g transform="matrix(1 0 0 1 -144.6 7.5)"  >
<path style="stroke: none; stroke-width: 1; stroke-dasharray: none; stroke-linecap: butt; stroke-dashoffset: 0; stroke-linejoin: miter; stroke-miterlimit: 4; fill: rgb(40,55,121); fill-rule: nonzero; opacity: 1;"  transform=" translate(-34, -52.85)" d="M 33.7 52.1 l -0.5 1 l 1.1 0.5 l 0.5 -1" stroke-linecap="round" />
</g>
		<g transform="matrix(1 0 0 1 -146.2 6.85)"  >
<path style="stroke: none; stroke-width: 1; stroke-dasharray: none; stroke-linecap: butt; stroke-dashoffset: 0; stroke-linejoin: miter; stroke-miterlimit: 4; fill: rgb(43,182,188); fill-rule: nonzero; opacity: 1;"  transform=" translate(-32.4, -52.2)" d="M 32.2 51.6 l -0.4 0.8 l 0.8 0.4 L 33 52" stroke-linecap="round" />
</g>
		<g transform="matrix(1 0 0 1 -145.5 8.85)"  >
<path style="stroke: none; stroke-width: 1; stroke-dasharray: none; stroke-linecap: butt; stroke-dashoffset: 0; stroke-linejoin: miter; stroke-miterlimit: 4; fill: rgb(114,184,69); fill-rule: nonzero; opacity: 1;"  transform=" translate(-33.1, -54.2)" d="M 32.9 53.6 l -0.4 0.8 l 0.8 0.4 l 0.4 -0.8" stroke-linecap="round" />
</g>
		<g transform="matrix(1 0 0 1 -146.6 8.15)"  >
<path style="stroke: none; stroke-width: 1; stroke-dasharray: none; stroke-linecap: butt; stroke-dashoffset: 0; stroke-linejoin: miter; stroke-miterlimit: 4; fill: rgb(206,216,55); fill-rule: nonzero; opacity: 1;"  transform=" translate(-32, -53.5)" d="M 31.8 53 l -0.3 0.7 l 0.7 0.3 l 0.3 -0.7" stroke-linecap="round" />
</g>
		<g transform="matrix(1 0 0 1 -146.3 10.05)"  >
<path style="stroke: none; stroke-width: 1; stroke-dasharray: none; stroke-linecap: butt; stroke-dashoffset: 0; stroke-linejoin: miter; stroke-miterlimit: 4; fill: rgb(206,216,55); fill-rule: nonzero; opacity: 1;"  transform=" translate(-32.3, -55.4)" d="M 32.1 54.9 l -0.3 0.7 l 0.7 0.3 l 0.3 -0.7" stroke-linecap="round" />
</g>
		<g transform="matrix(1 0 0 1 -147.7 7.75)"  >
<path style="stroke: none; stroke-width: 1; stroke-dasharray: none; stroke-linecap: butt; stroke-dashoffset: 0; stroke-linejoin: miter; stroke-miterlimit: 4; fill: rgb(49,136,201); fill-rule: nonzero; opacity: 1;"  transform=" translate(-30.9, -53.1)" d="M 30.7 52.6 l -0.3 0.7 l 0.7 0.3 l 0.3 -0.7" stroke-linecap="round" />
</g>
		<g transform="matrix(1 0 0 1 -147.2 9.25)"  >
<path style="stroke: none; stroke-width: 1; stroke-dasharray: none; stroke-linecap: butt; stroke-dashoffset: 0; stroke-linejoin: miter; stroke-miterlimit: 4; fill: rgb(177,174,179); fill-rule: nonzero; opacity: 1;"  transform=" translate(-31.4, -54.6)" d="M 31.2 54.1 l -0.3 0.7 l 0.7 0.3 l 0.3 -0.7" stroke-linecap="round" />
</g>
		<g transform="matrix(1 0 0 1 -148.05 8.7)"  >
<path style="stroke: none; stroke-width: 1; stroke-dasharray: none; stroke-linecap: butt; stroke-dashoffset: 0; stroke-linejoin: miter; stroke-miterlimit: 4; fill: rgb(114,184,69); fill-rule: nonzero; opacity: 1;"  transform=" translate(-30.55, -54.05)" d="M 30.4 53.7 l -0.2 0.5 l 0.5 0.2 l 0.2 -0.5" stroke-linecap="round" />
</g>
		<g transform="matrix(1 0 0 1 -147.85 10)"  >
<path style="stroke: none; stroke-width: 1; stroke-dasharray: none; stroke-linecap: butt; stroke-dashoffset: 0; stroke-linejoin: miter; stroke-miterlimit: 4; fill: rgb(43,182,188); fill-rule: nonzero; opacity: 1;"  transform=" translate(-30.75, -55.35)" d="M 30.4 55.5 l 0.2 -0.5 l 0.5 0.2 l -0.2 0.5 L 30.4 55.5 z" stroke-linecap="round" />
</g>
		<g transform="matrix(1 0 0 1 -144.6 12.55)"  >
<path style="stroke: none; stroke-width: 1; stroke-dasharray: none; stroke-linecap: butt; stroke-dashoffset: 0; stroke-linejoin: miter; stroke-miterlimit: 4; fill: rgb(49,136,201); fill-rule: nonzero; opacity: 1;"  transform=" translate(-34, -57.9)" d="M 34.2 57.1 l -1 0.6 l 0.6 1 l 1 -0.6" stroke-linecap="round" />
</g>
		<g transform="matrix(1 0 0 1 -145.5 11.05)"  >
<path style="stroke: none; stroke-width: 1; stroke-dasharray: none; stroke-linecap: butt; stroke-dashoffset: 0; stroke-linejoin: miter; stroke-miterlimit: 4; fill: rgb(43,182,188); fill-rule: nonzero; opacity: 1;"  transform=" translate(-33.1, -56.4)" d="M 33.3 55.8 l -0.8 0.4 l 0.4 0.8 l 0.8 -0.4" stroke-linecap="round" />
</g>
		<g transform="matrix(1 0 0 1 -146.1 13.15)"  >
<path style="stroke: none; stroke-width: 1; stroke-dasharray: none; stroke-linecap: butt; stroke-dashoffset: 0; stroke-linejoin: miter; stroke-miterlimit: 4; fill: rgb(43,182,188); fill-rule: nonzero; opacity: 1;"  transform=" translate(-32.5, -58.5)" d="M 32.7 57.9 l -0.8 0.4 l 0.4 0.8 l 0.8 -0.4" stroke-linecap="round" />
</g>
		<g transform="matrix(1 0 0 1 -146.65 11.8)"  >
<path style="stroke: none; stroke-width: 1; stroke-dasharray: none; stroke-linecap: butt; stroke-dashoffset: 0; stroke-linejoin: miter; stroke-miterlimit: 4; fill: rgb(40,55,121); fill-rule: nonzero; opacity: 1;"  transform=" translate(-31.95, -57.15)" d="M 32.1 56.7 l -0.6 0.3 l 0.3 0.6 l 0.6 -0.3" stroke-linecap="round" />
</g>
		<g transform="matrix(1 0 0 1 -147.45 13.6)"  >
<path style="stroke: none; stroke-width: 1; stroke-dasharray: none; stroke-linecap: butt; stroke-dashoffset: 0; stroke-linejoin: miter; stroke-miterlimit: 4; fill: rgb(92,180,95); fill-rule: nonzero; opacity: 1;"  transform=" translate(-31.15, -58.95)" d="M 31.3 58.5 l -0.6 0.3 l 0.3 0.6 l 0.6 -0.3" stroke-linecap="round" />
</g>
		<g transform="matrix(1 0 0 1 -147.25 10.9)"  >
<path style="stroke: none; stroke-width: 1; stroke-dasharray: none; stroke-linecap: butt; stroke-dashoffset: 0; stroke-linejoin: miter; stroke-miterlimit: 4; fill: rgb(31,57,111); fill-rule: nonzero; opacity: 1;"  transform=" translate(-31.35, -56.25)" d="M 31.5 55.8 l -0.6 0.3 l 0.3 0.6 l 0.6 -0.3" stroke-linecap="round" />
</g>
		<g transform="matrix(1 0 0 1 -147.75 12.4)"  >
<path style="stroke: none; stroke-width: 1; stroke-dasharray: none; stroke-linecap: butt; stroke-dashoffset: 0; stroke-linejoin: miter; stroke-miterlimit: 4; fill: rgb(206,216,55); fill-rule: nonzero; opacity: 1;"  transform=" translate(-30.85, -57.75)" d="M 31 57.3 l -0.6 0.3 l 0.3 0.6 l 0.6 -0.3" stroke-linecap="round" />
</g>
		<g transform="matrix(1 0 0 1 -148 11.45)"  >
<path style="stroke: none; stroke-width: 1; stroke-dasharray: none; stroke-linecap: butt; stroke-dashoffset: 0; stroke-linejoin: miter; stroke-miterlimit: 4; fill: rgb(177,174,179); fill-rule: nonzero; opacity: 1;"  transform=" translate(-30.6, -56.8)" d="M 30.7 56.5 l -0.4 0.2 l 0.2 0.4 l 0.4 -0.2" stroke-linecap="round" />
</g>
		<g transform="matrix(1 0 0 1 -148.8 12.7)"  >
<path style="stroke: none; stroke-width: 1; stroke-dasharray: none; stroke-linecap: butt; stroke-dashoffset: 0; stroke-linejoin: miter; stroke-miterlimit: 4; fill: rgb(43,182,188); fill-rule: nonzero; opacity: 1;"  transform=" translate(-29.8, -58.05)" d="M 30 57.7 L 29.5 58 l 0.2 0.4 l 0.4 -0.2" stroke-linecap="round" />
</g>
		<g transform="matrix(1 0 0 1 -147.45 16.6)"  >
<path style="stroke: none; stroke-width: 1; stroke-dasharray: none; stroke-linecap: butt; stroke-dashoffset: 0; stroke-linejoin: miter; stroke-miterlimit: 4; fill: rgb(114,184,69); fill-rule: nonzero; opacity: 1;"  transform=" translate(-31.15, -61.95)" d="M 30.5 62.5 l 0.1 -1.2 l 1.2 0.1 l -0.1 1.2 L 30.5 62.5 z" stroke-linecap="round" />
</g>
		<g transform="matrix(1 0 0 1 -147.4 14.95)"  >
<path style="stroke: none; stroke-width: 1; stroke-dasharray: none; stroke-linecap: butt; stroke-dashoffset: 0; stroke-linejoin: miter; stroke-miterlimit: 4; fill: rgb(31,57,111); fill-rule: nonzero; opacity: 1;"  transform=" translate(-31.2, -60.3)" d="M 30.7 60.7 l 0.1 -0.9 l 0.9 0.1 l -0.1 0.9 L 30.7 60.7 z" stroke-linecap="round" />
</g>
		<g transform="matrix(1 0 0 1 -149.1 16.25)"  >
<path style="stroke: none; stroke-width: 1; stroke-dasharray: none; stroke-linecap: butt; stroke-dashoffset: 0; stroke-linejoin: miter; stroke-miterlimit: 4; fill: rgb(43,182,188); fill-rule: nonzero; opacity: 1;"  transform=" translate(-29.5, -61.6)" d="M 29 62 l 0.1 -0.9 l 0.9 0.1 l -0.1 0.9 L 29 62 z" stroke-linecap="round" />
</g>
		<g transform="matrix(1 0 0 1 -148.8 14.95)"  >
<path style="stroke: none; stroke-width: 1; stroke-dasharray: none; stroke-linecap: butt; stroke-dashoffset: 0; stroke-linejoin: miter; stroke-miterlimit: 4; fill: rgb(114,184,69); fill-rule: nonzero; opacity: 1;"  transform=" translate(-29.8, -60.3)" d="M 29.4 60.6 l 0.1 -0.7 l 0.7 0.1 l -0.1 0.7 L 29.4 60.6 z" stroke-linecap="round" />
</g>
		<g transform="matrix(1 0 0 1 -150.5 15.85)"  >
<path style="stroke: none; stroke-width: 1; stroke-dasharray: none; stroke-linecap: butt; stroke-dashoffset: 0; stroke-linejoin: miter; stroke-miterlimit: 4; fill: rgb(177,174,179); fill-rule: nonzero; opacity: 1;"  transform=" translate(-28.1, -61.2)" d="M 27.7 61.5 l 0.1 -0.7 l 0.7 0.1 l -0.1 0.7 L 27.7 61.5 z" stroke-linecap="round" />
</g>
		<g transform="matrix(1 0 0 1 -148.7 13.85)"  >
<path style="stroke: none; stroke-width: 1; stroke-dasharray: none; stroke-linecap: butt; stroke-dashoffset: 0; stroke-linejoin: miter; stroke-miterlimit: 4; fill: rgb(177,174,179); fill-rule: nonzero; opacity: 1;"  transform=" translate(-29.9, -59.2)" d="M 29.5 59.5 l 0.1 -0.7 l 0.7 0.1 l -0.1 0.7 L 29.5 59.5 z" stroke-linecap="round" />
</g>
		<g transform="matrix(1 0 0 1 -150 14.85)"  >
<path style="stroke: none; stroke-width: 1; stroke-dasharray: none; stroke-linecap: butt; stroke-dashoffset: 0; stroke-linejoin: miter; stroke-miterlimit: 4; fill: rgb(114,184,69); fill-rule: nonzero; opacity: 1;"  transform=" translate(-28.6, -60.2)" d="M 28.2 60.5 l 0.1 -0.7 l 0.7 0.1 l -0.1 0.7 L 28.2 60.5 z" stroke-linecap="round" />
</g>
		<g transform="matrix(1 0 0 1 -149.7 13.85)"  >
<path style="stroke: none; stroke-width: 1; stroke-dasharray: none; stroke-linecap: butt; stroke-dashoffset: 0; stroke-linejoin: miter; stroke-miterlimit: 4; fill: rgb(177,174,179); fill-rule: nonzero; opacity: 1;"  transform=" translate(-28.9, -59.2)" d="M 28.6 59.4 l 0.1 -0.5 l 0.5 0.1 l -0.1 0.5 L 28.6 59.4 z" stroke-linecap="round" />
</g>
		<g transform="matrix(1 0 0 1 -151 14.45)"  >
<path style="stroke: none; stroke-width: 1; stroke-dasharray: none; stroke-linecap: butt; stroke-dashoffset: 0; stroke-linejoin: miter; stroke-miterlimit: 4; fill: rgb(177,174,179); fill-rule: nonzero; opacity: 1;"  transform=" translate(-27.6, -59.8)" d="M 27.3 60 l 0.1 -0.5 l 0.5 0.1 l -0.1 0.5 L 27.3 60 z" stroke-linecap="round" />
</g>
		<g transform="matrix(1 0 0 1 -152.25 18.3)"  >
<path style="stroke: none; stroke-width: 1; stroke-dasharray: none; stroke-linecap: butt; stroke-dashoffset: 0; stroke-linejoin: miter; stroke-miterlimit: 4; fill: rgb(206,216,55); fill-rule: nonzero; opacity: 1;"  transform=" translate(-26.35, -63.65)" d="M 27.2 63.6 l -0.9 -0.8 l -0.8 0.9 l 0.9 0.8" stroke-linecap="round" />
</g>
		<g transform="matrix(1 0 0 1 -152.45 2)"  >
<path style="stroke: none; stroke-width: 1; stroke-dasharray: none; stroke-linecap: butt; stroke-dashoffset: 0; stroke-linejoin: miter; stroke-miterlimit: 4; fill: rgb(114,184,69); fill-rule: nonzero; opacity: 1;"  transform=" translate(-26.15, -47.35)" d="M 27 47.3 l -0.9 -0.8 l -0.8 0.9 l 0.9 0.8" stroke-linecap="round" />
</g>
		<g transform="matrix(1 0 0 1 -151.15 17)"  >
<path style="stroke: none; stroke-width: 1; stroke-dasharray: none; stroke-linecap: butt; stroke-dashoffset: 0; stroke-linejoin: miter; stroke-miterlimit: 4; fill: rgb(43,182,188); fill-rule: nonzero; opacity: 1;"  transform=" translate(-27.45, -62.35)" d="M 28.1 62.3 l -0.7 -0.6 l -0.6 0.7 l 0.7 0.6" stroke-linecap="round" />
</g>
		<g transform="matrix(1 0 0 1 -153.35 17.1)"  >
<path style="stroke: none; stroke-width: 1; stroke-dasharray: none; stroke-linecap: butt; stroke-dashoffset: 0; stroke-linejoin: miter; stroke-miterlimit: 4; fill: rgb(114,184,69); fill-rule: nonzero; opacity: 1;"  transform=" translate(-25.25, -62.45)" d="M 25.9 62.4 l -0.7 -0.6 l -0.6 0.7 l 0.7 0.6" stroke-linecap="round" />
</g>
		<g transform="matrix(1 0 0 1 -152.3 16.15)"  >
<path style="stroke: none; stroke-width: 1; stroke-dasharray: none; stroke-linecap: butt; stroke-dashoffset: 0; stroke-linejoin: miter; stroke-miterlimit: 4; fill: rgb(49,136,201); fill-rule: nonzero; opacity: 1;"  transform=" translate(-26.3, -61.5)" d="M 26.8 61.5 L 26.3 61 l -0.5 0.5 l 0.5 0.5" stroke-linecap="round" />
</g>
		<g transform="matrix(1 0 0 1 -154.2 15.85)"  >
<path style="stroke: none; stroke-width: 1; stroke-dasharray: none; stroke-linecap: butt; stroke-dashoffset: 0; stroke-linejoin: miter; stroke-miterlimit: 4; fill: rgb(206,216,55); fill-rule: nonzero; opacity: 1;"  transform=" translate(-24.4, -61.2)" d="M 24.9 61.2 l -0.5 -0.5 l -0.5 0.5 l 0.5 0.5" stroke-linecap="round" />
</g>
		<g transform="matrix(1 0 0 1 -151.6 15.25)"  >
<path style="stroke: none; stroke-width: 1; stroke-dasharray: none; stroke-linecap: butt; stroke-dashoffset: 0; stroke-linejoin: miter; stroke-miterlimit: 4; fill: rgb(206,216,55); fill-rule: nonzero; opacity: 1;"  transform=" translate(-27, -60.6)" d="M 27.5 60.6 L 27 60.1 l -0.5 0.5 l 0.5 0.5" stroke-linecap="round" />
</g>
		<g transform="matrix(1 0 0 1 -153.2 15.35)"  >
<path style="stroke: none; stroke-width: 1; stroke-dasharray: none; stroke-linecap: butt; stroke-dashoffset: 0; stroke-linejoin: miter; stroke-miterlimit: 4; fill: rgb(177,174,179); fill-rule: nonzero; opacity: 1;"  transform=" translate(-25.4, -60.7)" d="M 25.9 60.7 l -0.5 -0.5 l -0.5 0.5 l 0.5 0.5" stroke-linecap="round" />
</g>
		<g transform="matrix(1 0 0 1 -152.35 14.7)"  >
<path style="stroke: none; stroke-width: 1; stroke-dasharray: none; stroke-linecap: butt; stroke-dashoffset: 0; stroke-linejoin: miter; stroke-miterlimit: 4; fill: rgb(31,57,111); fill-rule: nonzero; opacity: 1;"  transform=" translate(-26.25, -60.05)" d="M 26.6 60 l -0.4 -0.3 l -0.3 0.4 l 0.4 0.3" stroke-linecap="round" />
</g>
		<g transform="matrix(1 0 0 1 -153.75 14.5)"  >
<path style="stroke: none; stroke-width: 1; stroke-dasharray: none; stroke-linecap: butt; stroke-dashoffset: 0; stroke-linejoin: miter; stroke-miterlimit: 4; fill: rgb(177,174,179); fill-rule: nonzero; opacity: 1;"  transform=" translate(-24.85, -59.85)" d="M 25.2 59.8 l -0.4 -0.3 l -0.3 0.4 l 0.4 0.3" stroke-linecap="round" />
</g>
		<g transform="matrix(1 0 0 1 -157.15 16.85)"  >
<path style="stroke: none; stroke-width: 1; stroke-dasharray: none; stroke-linecap: butt; stroke-dashoffset: 0; stroke-linejoin: miter; stroke-miterlimit: 4; fill: rgb(49,136,201); fill-rule: nonzero; opacity: 1;"  transform=" translate(-21.45, -62.2)" d="M 20.8 61.7 l 1.1 -0.2 l 0.2 1.1 L 21 62.9 L 20.8 61.7 z" stroke-linecap="round" />
</g>
		<g transform="matrix(1 0 0 1 -155.45 16.4)"  >
<path style="stroke: none; stroke-width: 1; stroke-dasharray: none; stroke-linecap: butt; stroke-dashoffset: 0; stroke-linejoin: miter; stroke-miterlimit: 4; fill: rgb(43,182,188); fill-rule: nonzero; opacity: 1;"  transform=" translate(-23.15, -61.75)" d="M 22.6 61.4 l 0.9 -0.2 l 0.2 0.9 l -0.9 0.2 L 22.6 61.4 z" stroke-linecap="round" />
</g>
		<g transform="matrix(1 0 0 1 -157.25 15.2)"  >
<path style="stroke: none; stroke-width: 1; stroke-dasharray: none; stroke-linecap: butt; stroke-dashoffset: 0; stroke-linejoin: miter; stroke-miterlimit: 4; fill: rgb(114,184,69); fill-rule: nonzero; opacity: 1;"  transform=" translate(-21.35, -60.55)" d="M 20.8 60.2 l 0.9 -0.2 l 0.2 0.9 L 21 61.1 L 20.8 60.2 z" stroke-linecap="round" />
</g>
		<g transform="matrix(1 0 0 1 -155.9 15.05)"  >
<path style="stroke: none; stroke-width: 1; stroke-dasharray: none; stroke-linecap: butt; stroke-dashoffset: 0; stroke-linejoin: miter; stroke-miterlimit: 4; fill: rgb(206,216,55); fill-rule: nonzero; opacity: 1;"  transform=" translate(-22.7, -60.4)" d="M 22.3 60.2 L 23 60 l 0.1 0.7 l -0.7 0.1 L 22.3 60.2 z" stroke-linecap="round" />
</g>
		<g transform="matrix(1 0 0 1 -154.9 14.85)"  >
<path style="stroke: none; stroke-width: 1; stroke-dasharray: none; stroke-linecap: butt; stroke-dashoffset: 0; stroke-linejoin: miter; stroke-miterlimit: 4; fill: rgb(40,55,121); fill-rule: nonzero; opacity: 1;"  transform=" translate(-23.7, -60.2)" d="M 23.3 59.9 l 0.7 -0.1 l 0.1 0.7 l -0.7 0.1 L 23.3 59.9 z" stroke-linecap="round" />
</g>
		<g transform="matrix(1 0 0 1 -156.2 13.85)"  >
<path style="stroke: none; stroke-width: 1; stroke-dasharray: none; stroke-linecap: butt; stroke-dashoffset: 0; stroke-linejoin: miter; stroke-miterlimit: 4; fill: rgb(49,136,201); fill-rule: nonzero; opacity: 1;"  transform=" translate(-22.4, -59.2)" d="M 22 58.9 l 0.7 -0.1 l 0.1 0.7 l -0.7 0.1 L 22 58.9 z" stroke-linecap="round" />
</g>
		<g transform="matrix(1 0 0 1 -155.1 13.85)"  >
<path style="stroke: none; stroke-width: 1; stroke-dasharray: none; stroke-linecap: butt; stroke-dashoffset: 0; stroke-linejoin: miter; stroke-miterlimit: 4; fill: rgb(114,184,69); fill-rule: nonzero; opacity: 1;"  transform=" translate(-23.5, -59.2)" d="M 23.2 59 l 0.5 -0.1 l 0.1 0.5 l -0.5 0.1 L 23.2 59 z" stroke-linecap="round" />
</g>
		<g transform="matrix(1 0 0 1 -156.1 12.85)"  >
<path style="stroke: none; stroke-width: 1; stroke-dasharray: none; stroke-linecap: butt; stroke-dashoffset: 0; stroke-linejoin: miter; stroke-miterlimit: 4; fill: rgb(177,174,179); fill-rule: nonzero; opacity: 1;"  transform=" translate(-22.5, -58.2)" d="M 22.2 58 l 0.5 -0.1 l 0.1 0.5 l -0.5 0.1 L 22.2 58 z" stroke-linecap="round" />
</g>
		<g transform="matrix(1 0 0 1 -160.2 12.85)"  >
<path style="stroke: none; stroke-width: 1; stroke-dasharray: none; stroke-linecap: butt; stroke-dashoffset: 0; stroke-linejoin: miter; stroke-miterlimit: 4; fill: rgb(43,182,188); fill-rule: nonzero; opacity: 1;"  transform=" translate(-18.4, -58.2)" d="M 18.7 59 l 0.5 -1.1 l -1.1 -0.5 l -0.5 1.1" stroke-linecap="round" />
</g>
		<g transform="matrix(1 0 0 1 -158.6 13.45)"  >
<path style="stroke: none; stroke-width: 1; stroke-dasharray: none; stroke-linecap: butt; stroke-dashoffset: 0; stroke-linejoin: miter; stroke-miterlimit: 4; fill: rgb(206,216,55); fill-rule: nonzero; opacity: 1;"  transform=" translate(-20, -58.8)" d="M 20.2 59.4 l 0.4 -0.8 l -0.8 -0.4 L 19.4 59" stroke-linecap="round" />
</g>
		<g transform="matrix(1 0 0 1 -159.35 11.4)"  >
<path style="stroke: none; stroke-width: 1; stroke-dasharray: none; stroke-linecap: butt; stroke-dashoffset: 0; stroke-linejoin: miter; stroke-miterlimit: 4; fill: rgb(49,136,201); fill-rule: nonzero; opacity: 1;"  transform=" translate(-19.25, -56.75)" d="M 19.5 57.4 l 0.4 -0.8 L 19 56.1 L 18.6 57" stroke-linecap="round" />
</g>
		<g transform="matrix(1 0 0 1 -158.2 12.15)"  >
<path style="stroke: none; stroke-width: 1; stroke-dasharray: none; stroke-linecap: butt; stroke-dashoffset: 0; stroke-linejoin: miter; stroke-miterlimit: 4; fill: rgb(43,182,188); fill-rule: nonzero; opacity: 1;"  transform=" translate(-20.4, -57.5)" d="M 19.9 57.7 l 0.3 -0.7 l 0.7 0.3 L 20.6 58 L 19.9 57.7 z" stroke-linecap="round" />
</g>
		<g transform="matrix(1 0 0 1 -157.3 13.75)"  >
<path style="stroke: none; stroke-width: 1; stroke-dasharray: none; stroke-linecap: butt; stroke-dashoffset: 0; stroke-linejoin: miter; stroke-miterlimit: 4; fill: rgb(177,174,179); fill-rule: nonzero; opacity: 1;"  transform=" translate(-21.3, -59.1)" d="M 21.5 59.6 l 0.3 -0.7 l -0.7 -0.3 l -0.3 0.7" stroke-linecap="round" />
</g>
		<g transform="matrix(1 0 0 1 -158.5 10.25)"  >
<path style="stroke: none; stroke-width: 1; stroke-dasharray: none; stroke-linecap: butt; stroke-dashoffset: 0; stroke-linejoin: miter; stroke-miterlimit: 4; fill: rgb(40,55,121); fill-rule: nonzero; opacity: 1;"  transform=" translate(-20.1, -55.6)" d="M 19.6 55.8 l 0.3 -0.7 l 0.7 0.3 l -0.3 0.7 L 19.6 55.8 z" stroke-linecap="round" />
</g>
		<g transform="matrix(1 0 0 1 -157.1 12.45)"  >
<path style="stroke: none; stroke-width: 1; stroke-dasharray: none; stroke-linecap: butt; stroke-dashoffset: 0; stroke-linejoin: miter; stroke-miterlimit: 4; fill: rgb(92,180,95); fill-rule: nonzero; opacity: 1;"  transform=" translate(-21.5, -57.8)" d="M 21 58 l 0.3 -0.7 l 0.7 0.3 l -0.3 0.7 L 21 58 z" stroke-linecap="round" />
</g>
		<g transform="matrix(1 0 0 1 -157.6 10.95)"  >
<path style="stroke: none; stroke-width: 1; stroke-dasharray: none; stroke-linecap: butt; stroke-dashoffset: 0; stroke-linejoin: miter; stroke-miterlimit: 4; fill: rgb(206,216,55); fill-rule: nonzero; opacity: 1;"  transform=" translate(-21, -56.3)" d="M 20.5 56.5 l 0.3 -0.7 l 0.7 0.3 l -0.3 0.7 L 20.5 56.5 z" stroke-linecap="round" />
</g>
		<g transform="matrix(1 0 0 1 -156.85 11.6)"  >
<path style="stroke: none; stroke-width: 1; stroke-dasharray: none; stroke-linecap: butt; stroke-dashoffset: 0; stroke-linejoin: miter; stroke-miterlimit: 4; fill: rgb(31,57,111); fill-rule: nonzero; opacity: 1;"  transform=" translate(-21.75, -56.95)" d="M 21.9 57.3 l 0.2 -0.5 l -0.5 -0.2 l -0.2 0.5" stroke-linecap="round" />
</g>
		<g transform="matrix(1 0 0 1 -157.05 10.2)"  >
<path style="stroke: none; stroke-width: 1; stroke-dasharray: none; stroke-linecap: butt; stroke-dashoffset: 0; stroke-linejoin: miter; stroke-miterlimit: 4; fill: rgb(114,184,69); fill-rule: nonzero; opacity: 1;"  transform=" translate(-21.55, -55.55)" d="M 21.7 55.9 l 0.2 -0.5 l -0.5 -0.2 l -0.2 0.5" stroke-linecap="round" />
</g>
		<g transform="matrix(1 0 0 1 -160.3 7.75)"  >
<path style="stroke: none; stroke-width: 1; stroke-dasharray: none; stroke-linecap: butt; stroke-dashoffset: 0; stroke-linejoin: miter; stroke-miterlimit: 4; fill: rgb(43,182,188); fill-rule: nonzero; opacity: 1;"  transform=" translate(-18.3, -53.1)" d="M 18.1 53.9 l 1 -0.6 l -0.6 -1 l -1 0.6" stroke-linecap="round" />
</g>
		<g transform="matrix(1 0 0 1 -159.45 9.2)"  >
<path style="stroke: none; stroke-width: 1; stroke-dasharray: none; stroke-linecap: butt; stroke-dashoffset: 0; stroke-linejoin: miter; stroke-miterlimit: 4; fill: rgb(114,184,69); fill-rule: nonzero; opacity: 1;"  transform=" translate(-19.15, -54.55)" d="M 19 55.2 l 0.8 -0.5 l -0.5 -0.8 l -0.8 0.5" stroke-linecap="round" />
</g>
		<g transform="matrix(1 0 0 1 -158.8 7.1)"  >
<path style="stroke: none; stroke-width: 1; stroke-dasharray: none; stroke-linecap: butt; stroke-dashoffset: 0; stroke-linejoin: miter; stroke-miterlimit: 4; fill: rgb(31,57,111); fill-rule: nonzero; opacity: 1;"  transform=" translate(-19.8, -52.45)" d="M 19.6 53.1 l 0.8 -0.5 L 20 51.8 l -0.8 0.5" stroke-linecap="round" />
</g>
		<g transform="matrix(1 0 0 1 -158.3 8.35)"  >
<path style="stroke: none; stroke-width: 1; stroke-dasharray: none; stroke-linecap: butt; stroke-dashoffset: 0; stroke-linejoin: miter; stroke-miterlimit: 4; fill: rgb(49,136,201); fill-rule: nonzero; opacity: 1;"  transform=" translate(-20.3, -53.7)" d="M 20.2 54.2 l 0.6 -0.4 l -0.4 -0.6 l -0.6 0.4" stroke-linecap="round" />
</g>
		<g transform="matrix(1 0 0 1 -157.5 6.65)"  >
<path style="stroke: none; stroke-width: 1; stroke-dasharray: none; stroke-linecap: butt; stroke-dashoffset: 0; stroke-linejoin: miter; stroke-miterlimit: 4; fill: rgb(114,184,69); fill-rule: nonzero; opacity: 1;"  transform=" translate(-21.1, -52)" d="M 21 52.5 l 0.6 -0.4 l -0.4 -0.6 l -0.6 0.4" stroke-linecap="round" />
</g>
		<g transform="matrix(1 0 0 1 -157.7 9.35)"  >
<path style="stroke: none; stroke-width: 1; stroke-dasharray: none; stroke-linecap: butt; stroke-dashoffset: 0; stroke-linejoin: miter; stroke-miterlimit: 4; fill: rgb(43,182,188); fill-rule: nonzero; opacity: 1;"  transform=" translate(-20.9, -54.7)" d="M 20.8 55.2 l 0.6 -0.4 l -0.4 -0.6 l -0.6 0.4" stroke-linecap="round" />
</g>
		<g transform="matrix(1 0 0 1 -157.2 7.75)"  >
<path style="stroke: none; stroke-width: 1; stroke-dasharray: none; stroke-linecap: butt; stroke-dashoffset: 0; stroke-linejoin: miter; stroke-miterlimit: 4; fill: rgb(206,216,55); fill-rule: nonzero; opacity: 1;"  transform=" translate(-21.4, -53.1)" d="M 21.3 53.6 l 0.6 -0.4 l -0.4 -0.6 L 20.9 53" stroke-linecap="round" />
</g>
		<g transform="matrix(1 0 0 1 -156.9 8.8)"  >
<path style="stroke: none; stroke-width: 1; stroke-dasharray: none; stroke-linecap: butt; stroke-dashoffset: 0; stroke-linejoin: miter; stroke-miterlimit: 4; fill: rgb(177,174,179); fill-rule: nonzero; opacity: 1;"  transform=" translate(-21.7, -54.15)" d="M 21.6 54.5 l 0.4 -0.3 l -0.3 -0.4 L 21.4 54" stroke-linecap="round" />
</g>
		<g transform="matrix(1 0 0 1 -156.25 7.5)"  >
<path style="stroke: none; stroke-width: 1; stroke-dasharray: none; stroke-linecap: butt; stroke-dashoffset: 0; stroke-linejoin: miter; stroke-miterlimit: 4; fill: rgb(114,184,69); fill-rule: nonzero; opacity: 1;"  transform=" translate(-22.35, -52.85)" d="M 22.3 53.2 l 0.4 -0.3 l -0.3 -0.4 l -0.4 0.3" stroke-linecap="round" />
</g>
		<g transform="matrix(1 0 0 1 -157.45 3.6)"  >
<path style="stroke: none; stroke-width: 1; stroke-dasharray: none; stroke-linecap: butt; stroke-dashoffset: 0; stroke-linejoin: miter; stroke-miterlimit: 4; fill: rgb(114,184,69); fill-rule: nonzero; opacity: 1;"  transform=" translate(-21.15, -48.95)" d="M 20.5 49.5 l 0.1 -1.2 l 1.2 0.1 l -0.1 1.2 L 20.5 49.5 z" stroke-linecap="round" />
</g>
		<g transform="matrix(1 0 0 1 -157.6 5.35)"  >
<path style="stroke: none; stroke-width: 1; stroke-dasharray: none; stroke-linecap: butt; stroke-dashoffset: 0; stroke-linejoin: miter; stroke-miterlimit: 4; fill: rgb(177,174,179); fill-rule: nonzero; opacity: 1;"  transform=" translate(-21, -50.7)" d="M 20.5 51.1 l 0.1 -0.9 l 0.9 0.1 l -0.1 0.9 L 20.5 51.1 z" stroke-linecap="round" />
</g>
		<g transform="matrix(1 0 0 1 -155.9 3.95)"  >
<path style="stroke: none; stroke-width: 1; stroke-dasharray: none; stroke-linecap: butt; stroke-dashoffset: 0; stroke-linejoin: miter; stroke-miterlimit: 4; fill: rgb(43,182,188); fill-rule: nonzero; opacity: 1;"  transform=" translate(-22.7, -49.3)" d="M 22.2 49.7 l 0.1 -0.9 l 0.9 0.1 l -0.1 0.9 L 22.2 49.7 z" stroke-linecap="round" />
</g>
		<g transform="matrix(1 0 0 1 -156.2 5.35)"  >
<path style="stroke: none; stroke-width: 1; stroke-dasharray: none; stroke-linecap: butt; stroke-dashoffset: 0; stroke-linejoin: miter; stroke-miterlimit: 4; fill: rgb(206,216,55); fill-rule: nonzero; opacity: 1;"  transform=" translate(-22.4, -50.7)" d="M 22 51 l 0.1 -0.7 l 0.7 0.1 l -0.1 0.7 L 22 51 z" stroke-linecap="round" />
</g>
		<g transform="matrix(1 0 0 1 -154.5 4.35)"  >
<path style="stroke: none; stroke-width: 1; stroke-dasharray: none; stroke-linecap: butt; stroke-dashoffset: 0; stroke-linejoin: miter; stroke-miterlimit: 4; fill: rgb(49,136,201); fill-rule: nonzero; opacity: 1;"  transform=" translate(-24.1, -49.7)" d="M 23.7 50 l 0.1 -0.7 l 0.7 0.1 l -0.1 0.7 L 23.7 50 z" stroke-linecap="round" />
</g>
		<g transform="matrix(1 0 0 1 -156.2 6.45)"  >
<path style="stroke: none; stroke-width: 1; stroke-dasharray: none; stroke-linecap: butt; stroke-dashoffset: 0; stroke-linejoin: miter; stroke-miterlimit: 4; fill: rgb(43,182,188); fill-rule: nonzero; opacity: 1;"  transform=" translate(-22.4, -51.8)" d="M 22 52.1 l 0.1 -0.7 l 0.7 0.1 l -0.1 0.7 L 22 52.1 z" stroke-linecap="round" />
</g>
		<g transform="matrix(1 0 0 1 -154.9 5.45)"  >
<path style="stroke: none; stroke-width: 1; stroke-dasharray: none; stroke-linecap: butt; stroke-dashoffset: 0; stroke-linejoin: miter; stroke-miterlimit: 4; fill: rgb(114,184,69); fill-rule: nonzero; opacity: 1;"  transform=" translate(-23.7, -50.8)" d="M 23.3 51.1 l 0.1 -0.7 l 0.7 0.1 L 24 51.2 L 23.3 51.1 z" stroke-linecap="round" />
</g>
		<g transform="matrix(1 0 0 1 -155.2 6.45)"  >
<path style="stroke: none; stroke-width: 1; stroke-dasharray: none; stroke-linecap: butt; stroke-dashoffset: 0; stroke-linejoin: miter; stroke-miterlimit: 4; fill: rgb(31,57,111); fill-rule: nonzero; opacity: 1;"  transform=" translate(-23.4, -51.8)" d="M 23.1 52 l 0.1 -0.5 l 0.5 0.1 l -0.1 0.5 L 23.1 52 z" stroke-linecap="round" />
</g>
		<g transform="matrix(1 0 0 1 -153.9 5.85)"  >
<path style="stroke: none; stroke-width: 1; stroke-dasharray: none; stroke-linecap: butt; stroke-dashoffset: 0; stroke-linejoin: miter; stroke-miterlimit: 4; fill: rgb(177,174,179); fill-rule: nonzero; opacity: 1;"  transform=" translate(-24.7, -51.2)" d="M 24.4 51.4 l 0.1 -0.5 l 0.5 0.1 l -0.1 0.5 L 24.4 51.4 z" stroke-linecap="round" />
</g>
		<g transform="matrix(1 0 0 1 -152.46 9.69)"  >
<path style="stroke: none; stroke-width: 1; stroke-dasharray: none; stroke-linecap: butt; stroke-dashoffset: 0; stroke-linejoin: miter; stroke-miterlimit: 4; fill: rgb(114,122,130); fill-rule: nonzero; opacity: 1;"  transform=" translate(-26.14, -55.05)" d="M 29.8 56.2 c -0.6 -0.4 -1.5 -0.5 -2.3 -0.1 c -0.4 0.1 -0.8 0.4 -1.1 0.6 c -0.2 -1.2 -0.1 -2.4 -0.1 -3 c 0 0 0 0 0 0 c 0.4 0.3 0.3 1 0.2 1.3 c 0 0 0 0 0 0 c 0.5 -0.6 0.3 -1.4 0.2 -1.5 c 0 0 0.1 0.1 0.2 0.2 c 0.4 0.5 0.2 1 0.2 1 c 0 0 0 0 0 0 c 0.3 -0.5 0.2 -1.1 -0.3 -1.6 c 0 0 0.1 0 0.1 0 c 0.4 0.2 0.7 0.6 0.7 1 c 0 0.1 0.3 -0.8 -0.4 -1.2 c -0.1 -0.1 -0.3 -0.1 -0.4 -0.1 c -0.1 0 0.4 -0.1 0.7 0.1 c 0.2 0.1 0.2 0.3 0.2 0.2 c -0.1 -0.6 -0.7 -0.8 -1.1 -0.6 c 0 0 0.2 -0.3 0.6 -0.3 c 0.1 0 0.1 0 0.2 0 c 0 0 0 0 0 0 c -0.3 -0.3 -0.8 -0.3 -1.1 0 c 0 0 0 0 0 0 c -0.1 -0.2 -0.2 -0.4 -0.2 -0.6 c 0 -0.1 0 0.3 -0.2 0.6 c 0 0 0 0 0 0 c -0.3 -0.4 -0.8 -0.4 -1.1 0 c 0 0 0 0 0 0 c 0.2 -0.1 0.6 -0.1 0.8 0.2 c 0 0 0 0 0 0 c -0.4 -0.2 -1.1 0.1 -1.1 0.6 c 0 0 0 0 0 0 c 0 0 0.1 -0.1 0.2 -0.2 c 0.3 -0.3 0.9 -0.2 0.8 -0.2 c -0.2 0 -0.6 0.2 -0.8 0.6 c -0.1 0.3 0 0.8 0 0.7 c 0 -0.4 0.2 -0.9 0.8 -1 c 0 0 0 0 0 0 c -0.8 0.7 -0.3 1.7 -0.3 1.6 c 0 -0.3 0 -0.8 0.4 -1.2 c 0 0 0 0 0 0 c -0.1 0.2 -0.4 0.9 0.2 1.5 c 0 0 0 0 0 0 c -0.1 -0.2 -0.2 -1 0.2 -1.3 c 0 0 0 0 0 0 c 0 0.6 0.1 1.7 -0.1 3 c -0.7 -0.5 -1.4 -0.9 -2.3 -0.8 c -0.4 0 -0.9 0.1 -1.2 0.3 c 0 0 0 0 0 0 c 1.3 -0.4 2.4 0.1 3.4 0.9 c -0.5 0.5 -1 0.9 -1.3 1.1 c -0.1 -0.1 -0.2 -0.1 -0.3 -0.1 c -0.2 0.1 -0.3 0.3 -0.2 0.5 c 0.5 0.4 1.2 -0.4 2 -1.2 c 0.8 0.7 1.5 1.6 2 1.2 c 0 0 0.1 -0.2 0.1 -0.2 c -0.1 -0.2 -0.4 -0.3 -0.5 -0.1 c -0.3 -0.1 -0.7 -0.6 -1.3 -1.1 C 27.5 56.3 28.6 55.8 29.8 56.2 C 29.9 56.2 29.9 56.2 29.8 56.2" stroke-linecap="round" />
</g>
		<g transform="matrix(1 0 0 1 -146.28 22.05)"  >
<path style="stroke: none; stroke-width: 1; stroke-dasharray: none; stroke-linecap: butt; stroke-dashoffset: 0; stroke-linejoin: miter; stroke-miterlimit: 4; fill: rgb(173,169,174); fill-rule: nonzero; opacity: 1;"  transform=" translate(-32.31, -67.4)" d="M 25.7 68.5 h 0.3 v -3 h -0.3 V 68.5 z M 17 68.1 l -0.5 -1.3 c 0.5 -0.5 1.2 -0.4 1.6 0 l -0.5 1.3 H 17 z M 15.2 68.1 c -0.3 0 -0.4 0 -0.7 -0.1 c -0.9 -0.3 -0.7 -1.5 0.4 -1.5 h 0.3 V 68.1 z M 24.4 68.1 c -0.5 0 -1 0.1 -1.3 -0.3 c 0 -0.2 0 -0.4 0 -1.4 h -0.3 v 1.1 c 0 0.8 -1 0.8 -1.2 0.3 c -0.1 -0.2 0 -0.3 -0.1 -1.4 h -0.3 v 1.2 c 0 0.4 -0.2 0.6 -0.6 0.6 H 20 v -1.7 h -0.3 v 1.7 h -1.8 l 0.6 -1.4 c -0.3 -0.3 -0.8 -0.6 -1.2 -0.6 c -0.4 0 -0.9 0.3 -1.2 0.6 l 0.6 1.4 h -1.2 v -1.9 H 15 c -0.8 0 -1.4 0.4 -1.4 1.1 c 0 1.3 1.6 1.1 1.6 1.1 c 0 0 0 0.3 -0.2 0.5 c -0.2 0.1 -0.5 0.1 -0.7 0.1 c -0.1 0 -0.2 -0.1 -0.3 -0.1 l -0.1 0.3 c 0.2 0.1 0.4 0.1 0.6 0.1 c 0.6 0 0.9 -0.3 0.9 -0.9 v -0.1 c 5.5 0 5.3 0.1 5.6 -0.1 c 0.1 -0.1 0.2 -0.2 0.3 -0.3 c 0.1 0.1 0.2 0.2 0.3 0.3 c 0.3 0.2 0.7 0.1 1 0 c 0.1 -0.1 0.2 -0.2 0.3 -0.3 c 0.1 0.2 0.3 0.4 0.7 0.4 v 0 h 1 v -3 h -0.3 V 68.1 z M 54.4 68 c -0.3 0.7 -1.3 0.7 -1.6 0 c -0.1 -0.2 -0.1 -0.5 0 -0.7 c 0.4 -0.9 1.7 -0.6 1.7 0.3 C 54.5 67.8 54.5 67.9 54.4 68 M 51.2 68 c -0.3 0.6 -1 0.7 -1.4 0.3 c -0.3 -0.3 -0.3 -0.9 0 -1.2 c 0.3 -0.3 0.7 -0.3 1 -0.2 C 51.2 67 51.4 67.6 51.2 68 M 43 68.1 c -0.3 0 -0.4 0 -0.7 -0.1 c -0.9 -0.3 -0.7 -1.5 0.4 -1.5 H 43 L 43 68.1 L 43 68.1 z M 55.9 68.1 h -1.1 c 0.4 -0.8 -0.2 -1.7 -1.1 -1.7 c -0.8 0 -1.4 0.9 -1.1 1.7 h -1 c 0.3 -0.8 -0.2 -1.7 -1.1 -1.7 c -0.8 0 -1.4 0.9 -1.1 1.7 h -1.1 v -2.7 h -0.3 v 2.7 h -1.1 c 0 -0.3 0.1 -0.8 -0.2 -1.2 c -0.2 -0.2 -0.4 -0.3 -0.7 -0.3 h -1.5 l 0.6 -1.2 h -0.4 L 44 66.7 c 0 0.1 0.1 0.2 0.2 0.3 c 1.7 0 1.8 0 2 0 c 0.2 0.1 0.2 0.2 0.3 0.3 c 0 0.2 0 0.3 0 0.8 h -3.1 v -1.9 h -0.5 c -0.9 0 -1.4 0.5 -1.4 1.1 c 0 0.8 0.6 1.1 1.4 1.1 h 6.6 c 0.5 0.5 1.3 0.5 1.8 0 h 1.5 c 0.5 0.5 1.3 0.5 1.8 0 h 1.7 v -3 h -0.3 L 55.9 68.1 L 55.9 68.1 z M 57.2 68.5 h 0.3 v -3 h -0.3 V 68.5 z M 32.6 69.2 h 0.3 v -0.3 h -0.3 V 69.2 z M 35.8 68.1 l -0.5 -1.3 c 0.5 -0.5 1.2 -0.4 1.6 0 l -0.5 1.3 H 35.8 z M 38.2 68.1 h -1.4 l 0.6 -1.4 c -0.3 -0.3 -0.8 -0.6 -1.2 -0.6 c -0.5 0 -0.9 0.3 -1.2 0.6 l 0.6 1.4 h -1.2 v -1.9 h -0.3 v 2.3 c 0 0.3 0 0.5 -0.3 0.5 c -0.1 0 -0.1 0 -0.2 0 l -0.1 0.3 c 0.3 0.1 0.6 0.1 0.8 -0.2 c 0.1 -0.2 0.1 -0.5 0.1 -0.7 h 4.3 v -3 h -0.3 L 38.2 68.1 L 38.2 68.1 z M 12.8 66.5 c -0.4 -0.4 -0.8 -0.3 -0.9 -0.3 v 0.3 c 0.2 0 0.4 0 0.5 0.1 c 0.1 0.1 0.2 0.2 0.3 0.3 c 0 0.2 0 0.3 0 1.2 h -1.6 v 0.3 H 13 c 0 -1.3 0 -1.4 -0.1 -1.7 C 13 66.7 12.9 66.6 12.8 66.5 M 31.3 69.2 h 0.3 v -0.3 h -0.3 V 69.2 z M 29.3 68.1 c -0.3 0 -0.4 0 -0.7 -0.1 c -0.9 -0.3 -0.7 -1.5 0.4 -1.5 h 0.3 V 68.1 z M 32.9 66.2 h -0.3 v 1.9 h -1.3 v -1.9 H 31 v 1.9 h -1.3 v -1.9 c -0.4 0 -1 -0.1 -1.5 0.3 c -0.7 0.6 -0.5 1.9 1 1.9 h 3.8 V 66.2 z M 30.7 69.2 h 0.3 v -0.3 h -0.3 V 69.2 z M 8.4 65.5 H 8.1 v 0.3 h 0.3 V 65.5 z M 42.8 65.5 h -0.3 v 0.3 h 0.3 V 65.5 z M 29.6 65.5 h -0.3 v 0.3 h 0.3 V 65.5 z M 10.4 69.2 h 0.3 v -0.3 h -0.3 V 69.2 z M 29 65.5 h -0.3 v 0.3 H 29 V 65.5 z M 9 65.5 H 8.7 v 0.3 H 9 V 65.5 z M 9.8 69.2 h 0.3 v -0.3 H 9.8 V 69.2 z M 8.7 68.1 c -0.3 0 -0.4 0 -0.7 -0.1 c -0.9 -0.3 -0.7 -1.5 0.4 -1.5 h 0.3 V 68.1 z M 10.7 66.2 h -0.3 v 1.9 H 9 v -1.9 c -0.4 0 -0.7 0 -1.1 0.1 c -0.3 0.1 -0.6 0.3 -0.7 0.6 c -0.1 0.3 -0.1 0.7 0 1 c 0.2 0.5 0.7 0.6 1.3 0.6 h 2.2 V 66.2 z M 39.5 68.5 h 0.3 v -3 h -0.3 V 68.5 z M 43.4 65.5 H 43 v 0.3 h 0.3 V 65.5 z" stroke-linecap="round" />
</g>
		<g transform="matrix(1 0 0 1 -170.15 26.55)"  >
<path style="stroke: none; stroke-width: 1; stroke-dasharray: none; stroke-linecap: butt; stroke-dashoffset: 0; stroke-linejoin: miter; stroke-miterlimit: 4; fill: rgb(173,169,174); fill-rule: nonzero; opacity: 1;"  transform=" translate(-8.45, -71.9)" d="M 7.4 70.7 h 0.4 v 1.2 L 9 70.7 h 0.5 l -1 1 l 1 1.4 H 9 L 8.2 72 l -0.4 0.4 V 73 H 7.4" stroke-linecap="round" />
</g>
		<g transform="matrix(1 0 0 1 -168.5 26.5)"  >
<path style="stroke: none; stroke-width: 1; stroke-dasharray: none; stroke-linecap: butt; stroke-dashoffset: 0; stroke-linejoin: miter; stroke-miterlimit: 4; fill: rgb(173,169,174); fill-rule: nonzero; opacity: 1;"  transform=" translate(-10.1, -71.85)" d="M 9.9 70.7 h 0.4 V 73 H 9.9 V 70.7 z" stroke-linecap="round" />
</g>
		<g transform="matrix(1 0 0 1 -166.55 26.5)"  >
<path style="stroke: none; stroke-width: 1; stroke-dasharray: none; stroke-linecap: butt; stroke-dashoffset: 0; stroke-linejoin: miter; stroke-miterlimit: 4; fill: rgb(173,169,174); fill-rule: nonzero; opacity: 1;"  transform=" translate(-12.05, -71.85)" d="M 11 70.7 h 0.4 l 1.3 1.6 v -1.6 h 0.4 V 73 h -0.4 l -1.3 -1.7 V 73 H 11" stroke-linecap="round" />
</g>
		<g transform="matrix(1 0 0 1 -163.9 26.55)"  >
<path style="stroke: none; stroke-width: 1; stroke-dasharray: none; stroke-linecap: butt; stroke-dashoffset: 0; stroke-linejoin: miter; stroke-miterlimit: 4; fill: rgb(173,169,174); fill-rule: nonzero; opacity: 1;"  transform=" translate(-14.7, -71.9)" d="M 13.6 71.9 L 13.6 71.9 c 0 -0.7 0.5 -1.2 1.2 -1.2 c 0.4 0 0.7 0.1 0.9 0.3 l -0.3 0.3 c -0.6 -0.5 -1.4 -0.2 -1.4 0.6 v 0 c 0 0.5 0.3 0.9 0.8 0.9 c 0.2 0 0.4 -0.1 0.6 -0.2 v -0.4 h -0.6 v -0.4 h 1 v 1 C 15 73.4 13.6 73.1 13.6 71.9" stroke-linecap="round" />
</g>
		<g transform="matrix(1 0 0 1 -161.11 26.55)"  >
<path style="stroke: none; stroke-width: 1; stroke-dasharray: none; stroke-linecap: butt; stroke-dashoffset: 0; stroke-linejoin: miter; stroke-miterlimit: 4; fill: rgb(173,169,174); fill-rule: nonzero; opacity: 1;"  transform=" translate(-17.49, -71.9)" d="M 17.3 72.7 c 1.1 0 1.1 -1.6 0 -1.6 h -0.5 v 1.6 H 17.3 z M 16.4 70.7 h 0.9 c 1.7 0 1.7 2.4 0 2.4 h -0.9 V 70.7 z" stroke-linecap="round" />
</g>
		<g transform="matrix(1 0 0 1 -158.35 26.55)"  >
<path style="stroke: none; stroke-width: 1; stroke-dasharray: none; stroke-linecap: butt; stroke-dashoffset: 0; stroke-linejoin: miter; stroke-miterlimit: 4; fill: rgb(173,169,174); fill-rule: nonzero; opacity: 1;"  transform=" translate(-20.25, -71.9)" d="M 21 71.9 L 21 71.9 c 0 -0.5 -0.3 -0.9 -0.8 -0.9 c -0.5 0 -0.8 0.4 -0.8 0.8 v 0 c 0 0.5 0.3 0.8 0.8 0.8 C 20.7 72.7 21 72.3 21 71.9 M 19 71.9 L 19 71.9 c 0 -0.7 0.5 -1.2 1.3 -1.2 c 0.7 0 1.2 0.6 1.2 1.2 v 0 c 0 0.7 -0.5 1.2 -1.3 1.2 C 19.5 73.1 19 72.5 19 71.9" stroke-linecap="round" />
</g>
		<g transform="matrix(1 0 0 1 -155.5 26.5)"  >
<path style="stroke: none; stroke-width: 1; stroke-dasharray: none; stroke-linecap: butt; stroke-dashoffset: 0; stroke-linejoin: miter; stroke-miterlimit: 4; fill: rgb(173,169,174); fill-rule: nonzero; opacity: 1;"  transform=" translate(-23.1, -71.85)" d="M 22 70.7 h 0.4 l 0.7 1.1 l 0.7 -1.1 h 0.4 V 73 h -0.4 v -1.7 l -0.8 1.1 h 0 l -0.7 -1.1 V 73 H 22" stroke-linecap="round" />
</g>
		<g transform="matrix(1 0 0 1 -151.55 26.55)"  >
<path style="stroke: none; stroke-width: 1; stroke-dasharray: none; stroke-linecap: butt; stroke-dashoffset: 0; stroke-linejoin: miter; stroke-miterlimit: 4; fill: rgb(173,169,174); fill-rule: nonzero; opacity: 1;"  transform=" translate(-27.05, -71.9)" d="M 27.9 71.9 L 27.9 71.9 c 0 -0.5 -0.3 -0.9 -0.8 -0.9 c -0.5 0 -0.8 0.4 -0.8 0.8 v 0 c 0 0.5 0.3 0.8 0.8 0.8 C 27.6 72.7 27.9 72.3 27.9 71.9 M 25.8 71.9 L 25.8 71.9 c 0 -0.7 0.5 -1.2 1.3 -1.2 c 0.7 0 1.2 0.6 1.2 1.2 v 0 c 0 0.7 -0.5 1.2 -1.3 1.2 C 26.4 73.1 25.8 72.5 25.8 71.9" stroke-linecap="round" />
</g>
		<g transform="matrix(1 0 0 1 -148.8 26.5)"  >
<path style="stroke: none; stroke-width: 1; stroke-dasharray: none; stroke-linecap: butt; stroke-dashoffset: 0; stroke-linejoin: miter; stroke-miterlimit: 4; fill: rgb(173,169,174); fill-rule: nonzero; opacity: 1;"  transform=" translate(-29.8, -71.85)" d="M 28.9 70.7 h 1.8 V 71 h -1.4 v 0.6 h 1.2 v 0.4 h -1.2 v 1 h -0.4" stroke-linecap="round" />
</g>
		<g transform="matrix(1 0 0 1 -145.6 26.5)"  >
<path style="stroke: none; stroke-width: 1; stroke-dasharray: none; stroke-linecap: butt; stroke-dashoffset: 0; stroke-linejoin: miter; stroke-miterlimit: 4; fill: rgb(173,169,174); fill-rule: nonzero; opacity: 1;"  transform=" translate(-33, -71.85)" d="M 32 72.7 l 0.3 -0.3 c 0.2 0.2 0.5 0.3 0.8 0.3 c 0.3 0 0.4 -0.1 0.4 -0.3 v 0 c 0 -0.5 -1.3 -0.2 -1.3 -1.1 v 0 c 0 -0.7 1 -0.9 1.7 -0.4 l -0.2 0.3 c -0.5 -0.4 -1 -0.2 -1 0 v 0 c 0 0.5 1.3 0.2 1.3 1.1 v 0 C 33.8 73.2 32.6 73.3 32 72.7" stroke-linecap="round" />
</g>
		<g transform="matrix(1 0 0 1 -143.35 26.45)"  >
<path style="stroke: none; stroke-width: 1; stroke-dasharray: none; stroke-linecap: butt; stroke-dashoffset: 0; stroke-linejoin: miter; stroke-miterlimit: 4; fill: rgb(173,169,174); fill-rule: nonzero; opacity: 1;"  transform=" translate(-35.25, -71.8)" d="M 35.7 72.1 l -0.4 -1 l -0.4 1 H 35.7 z M 35.1 70.6 h 0.4 l 1 2.4 h -0.4 l -0.2 -0.6 h -1.1 L 34.5 73 H 34 L 35.1 70.6 z" stroke-linecap="round" />
</g>
		<g transform="matrix(1 0 0 1 -140.8 26.5)"  >
<path style="stroke: none; stroke-width: 1; stroke-dasharray: none; stroke-linecap: butt; stroke-dashoffset: 0; stroke-linejoin: miter; stroke-miterlimit: 4; fill: rgb(173,169,174); fill-rule: nonzero; opacity: 1;"  transform=" translate(-37.8, -71.85)" d="M 36.8 72 v -1.4 h 0.4 V 72 c 0 0.4 0.2 0.7 0.6 0.7 c 0.4 0 0.6 -0.2 0.6 -0.7 v -1.4 h 0.4 V 72 c 0 0.7 -0.4 1.1 -1 1.1 C 37.2 73.1 36.8 72.7 36.8 72" stroke-linecap="round" />
</g>
		<g transform="matrix(1 0 0 1 -138.11 26.55)"  >
<path style="stroke: none; stroke-width: 1; stroke-dasharray: none; stroke-linecap: butt; stroke-dashoffset: 0; stroke-linejoin: miter; stroke-miterlimit: 4; fill: rgb(173,169,174); fill-rule: nonzero; opacity: 1;"  transform=" translate(-40.49, -71.9)" d="M 40.3 72.7 c 1.1 0 1.1 -1.6 0 -1.6 h -0.5 v 1.6 H 40.3 z M 39.4 70.7 h 0.9 c 1.7 0 1.7 2.4 0 2.4 h -0.9 V 70.7 z" stroke-linecap="round" />
</g>
		<g transform="matrix(1 0 0 1 -136.3 26.5)"  >
<path style="stroke: none; stroke-width: 1; stroke-dasharray: none; stroke-linecap: butt; stroke-dashoffset: 0; stroke-linejoin: miter; stroke-miterlimit: 4; fill: rgb(173,169,174); fill-rule: nonzero; opacity: 1;"  transform=" translate(-42.3, -71.85)" d="M 42.1 70.7 h 0.4 V 73 h -0.4 V 70.7 z" stroke-linecap="round" />
</g>
		<g transform="matrix(1 0 0 1 -133.4 26.45)"  >
<path style="stroke: none; stroke-width: 1; stroke-dasharray: none; stroke-linecap: butt; stroke-dashoffset: 0; stroke-linejoin: miter; stroke-miterlimit: 4; fill: rgb(173,169,174); fill-rule: nonzero; opacity: 1;"  transform=" translate(-45.2, -71.8)" d="M 45.6 72.1 l -0.4 -1 l -0.4 1 H 45.6 z M 45 70.6 h 0.4 l 1 2.4 H 46 l -0.2 -0.6 h -1.1 L 44.4 73 H 44 L 45 70.6 z" stroke-linecap="round" />
</g>
		<g transform="matrix(1 0 0 1 -130.7 26.55)"  >
<path style="stroke: none; stroke-width: 1; stroke-dasharray: none; stroke-linecap: butt; stroke-dashoffset: 0; stroke-linejoin: miter; stroke-miterlimit: 4; fill: rgb(173,169,174); fill-rule: nonzero; opacity: 1;"  transform=" translate(-47.9, -71.9)" d="M 47.9 71.8 c 0.3 0 0.5 -0.2 0.5 -0.4 v 0 c 0 -0.3 -0.2 -0.4 -0.5 -0.4 h -0.6 v 0.8 H 47.9 z M 46.9 70.7 h 1.1 c 0.5 0 0.9 0.3 0.9 0.8 c 0 0 0 0.6 -0.6 0.7 l 0.6 0.9 h -0.5 l -0.6 -0.8 c 0 0 -0.6 0 -0.5 0 V 73 h -0.4 V 70.7 z" stroke-linecap="round" />
</g>
		<g transform="matrix(1 0 0 1 -128.15 26.45)"  >
<path style="stroke: none; stroke-width: 1; stroke-dasharray: none; stroke-linecap: butt; stroke-dashoffset: 0; stroke-linejoin: miter; stroke-miterlimit: 4; fill: rgb(173,169,174); fill-rule: nonzero; opacity: 1;"  transform=" translate(-50.45, -71.8)" d="M 50.9 72.1 l -0.4 -1 l -0.4 1 H 50.9 z M 50.3 70.6 h 0.4 l 1 2.4 h -0.4 L 51 72.5 h -1.1 L 49.6 73 h -0.4 L 50.3 70.6 z" stroke-linecap="round" />
</g>
		<g transform="matrix(1 0 0 1 -125.45 26.55)"  >
<path style="stroke: none; stroke-width: 1; stroke-dasharray: none; stroke-linecap: butt; stroke-dashoffset: 0; stroke-linejoin: miter; stroke-miterlimit: 4; fill: rgb(173,169,174); fill-rule: nonzero; opacity: 1;"  transform=" translate(-53.15, -71.9)" d="M 53.2 72.7 c 0.3 0 0.5 -0.1 0.5 -0.3 v 0 c 0 -0.2 -0.2 -0.3 -0.5 -0.3 h -0.7 v 0.7 H 53.2 z M 53.1 71.7 c 0.3 0 0.4 -0.1 0.4 -0.3 v 0 c 0 -0.2 -0.1 -0.3 -0.4 -0.3 h -0.6 v 0.6 H 53.1 z M 52.1 70.7 h 1.1 c 0.4 0 0.8 0.2 0.8 0.6 c 0 0 0 0.3 -0.3 0.5 c 0.3 0.1 0.5 0.3 0.5 0.6 v 0 c 0 0.4 -0.4 0.7 -0.9 0.7 h -1.1 V 70.7 z" stroke-linecap="round" />
</g>
		<g transform="matrix(1 0 0 1 -123.8 26.5)"  >
<path style="stroke: none; stroke-width: 1; stroke-dasharray: none; stroke-linecap: butt; stroke-dashoffset: 0; stroke-linejoin: miter; stroke-miterlimit: 4; fill: rgb(173,169,174); fill-rule: nonzero; opacity: 1;"  transform=" translate(-54.8, -71.85)" d="M 54.6 70.7 H 55 V 73 h -0.4 V 70.7 z" stroke-linecap="round" />
</g>
		<g transform="matrix(1 0 0 1 -121.9 26.45)"  >
<path style="stroke: none; stroke-width: 1; stroke-dasharray: none; stroke-linecap: butt; stroke-dashoffset: 0; stroke-linejoin: miter; stroke-miterlimit: 4; fill: rgb(173,169,174); fill-rule: nonzero; opacity: 1;"  transform=" translate(-56.7, -71.8)" d="M 57.1 72.1 l -0.4 -1 l -0.4 1 H 57.1 z M 56.5 70.6 h 0.4 l 1 2.4 h -0.4 l -0.2 -0.6 h -1.1 L 55.9 73 h -0.4 L 56.5 70.6 z" stroke-linecap="round" />
</g>
		<g transform="matrix(1 0 0 1 -99.15 10.8)"  >
<rect style="stroke: none; stroke-width: 1; stroke-dasharray: none; stroke-linecap: butt; stroke-dashoffset: 0; stroke-linejoin: miter; stroke-miterlimit: 4; fill: rgb(202,201,201); fill-rule: nonzero; opacity: 1;"  x="-0.45" y="-17.75" rx="0" ry="0" width="0.9" height="35.5" />
</g>
		<g transform="matrix(1 0 0 1 -73.95 20.25)"  >
<path style="stroke: none; stroke-width: 1; stroke-dasharray: none; stroke-linecap: butt; stroke-dashoffset: 0; stroke-linejoin: miter; stroke-miterlimit: 4; fill: rgb(146,148,151); fill-rule: nonzero; opacity: 1;"  transform=" translate(-104.65, -65.6)" d="M 105.8 65.1 l -1.3 -0.3 c -0.5 -0.1 -0.9 -0.2 -1.1 -0.4 c -0.2 -0.1 -0.3 -0.3 -0.3 -0.6 c 0 -0.2 0 -0.3 0.1 -0.4 c 0.1 -0.1 0.1 -0.2 0.3 -0.3 c 0.1 -0.1 0.3 -0.2 0.5 -0.2 c 0.5 -0.1 1.2 -0.1 1.8 0 c 0.3 0.1 0.5 0.1 0.8 0.2 c 0.2 0.1 0.4 0.2 0.5 0.3 c 0.1 0.1 0.2 0.2 0.3 0.2 l 0.1 0.1 l 0.1 -0.1 c 0.1 -0.1 0.2 -0.2 0.4 -0.4 c 0.1 -0.2 0.2 -0.4 0.2 -0.6 c 0 -0.2 -0.1 -0.3 -0.2 -0.5 c -0.1 -0.1 -0.2 -0.2 -0.4 -0.3 c -0.1 0 -0.2 -0.1 -0.3 -0.2 c -0.1 -0.1 -0.3 -0.1 -0.6 -0.2 c -0.2 -0.1 -0.5 -0.1 -0.8 -0.2 c -0.3 0 -0.7 -0.1 -1.1 -0.1 c -0.6 0 -1.1 0.1 -1.6 0.2 c -0.4 0.1 -0.8 0.3 -1.1 0.6 c -0.3 0.2 -0.5 0.5 -0.6 0.9 c -0.1 0.3 -0.2 0.7 -0.2 1 c 0 0.4 0.1 0.7 0.2 1 c 0.2 0.3 0.4 0.5 0.6 0.7 c 0.3 0.2 0.5 0.3 0.9 0.5 c 0.3 0.1 0.7 0.2 1 0.3 l 1.3 0.2 c 0.2 0 0.4 0.1 0.6 0.1 c 0.2 0.1 0.3 0.1 0.4 0.2 c 0.1 0.1 0.2 0.2 0.2 0.3 c 0.1 0.1 0.1 0.2 0.1 0.4 c 0 0.3 -0.1 0.6 -0.4 0.7 c -0.3 0.2 -0.7 0.3 -1.4 0.3 c -0.4 0 -0.7 0 -1 -0.1 c -0.3 -0.1 -0.6 -0.1 -0.9 -0.2 c -0.3 -0.1 -0.5 -0.2 -0.6 -0.3 c -0.2 -0.1 -0.3 -0.2 -0.4 -0.2 l -0.1 -0.1 l -0.8 1.4 l 0.1 0.1 c 0.1 0.1 0.3 0.2 0.5 0.3 c 0.2 0.1 0.5 0.2 0.8 0.3 c 0.3 0.1 0.7 0.2 1.1 0.3 c 0.4 0.1 0.9 0.1 1.3 0.1 c 0.6 0 1.1 -0.1 1.5 -0.2 c 0.5 -0.1 0.8 -0.3 1.1 -0.5 c 0.3 -0.2 0.5 -0.5 0.7 -0.9 c 0.2 -0.3 0.2 -0.7 0.2 -1.1 c 0 -0.7 -0.2 -1.3 -0.7 -1.7 C 107.3 65.6 106.7 65.3 105.8 65.1 z" stroke-linecap="round" />
</g>
		<g transform="matrix(1 0 0 1 -64.2 20.52)"  >
<path style="stroke: none; stroke-width: 1; stroke-dasharray: none; stroke-linecap: butt; stroke-dashoffset: 0; stroke-linejoin: miter; stroke-miterlimit: 4; fill: rgb(146,148,151); fill-rule: nonzero; opacity: 1;"  transform=" translate(-114.4, -65.86)" d="M 117.6 62.7 c -0.4 -0.4 -0.9 -0.7 -1.4 -0.9 c -1.1 -0.5 -2.5 -0.5 -3.6 0 c -0.5 0.2 -1 0.5 -1.4 0.9 c -0.4 0.4 -0.7 0.9 -1 1.4 c -0.2 0.5 -0.3 1.1 -0.3 1.8 c 0 0.6 0.1 1.2 0.3 1.8 c 0.2 0.5 0.6 1 1 1.4 c 0.4 0.4 0.9 0.7 1.4 0.9 c 0.5 0.2 1.1 0.3 1.8 0.3 s 1.2 -0.1 1.8 -0.3 c 0.5 -0.2 1 -0.5 1.4 -0.9 c 0.4 -0.4 0.7 -0.9 1 -1.4 c 0.2 -0.5 0.3 -1.1 0.3 -1.8 s -0.1 -1.2 -0.3 -1.8 C 118.3 63.6 118 63.1 117.6 62.7 z M 117.1 65.9 c 0 0.4 -0.1 0.8 -0.2 1.1 c -0.1 0.3 -0.3 0.6 -0.6 0.9 c -0.2 0.2 -0.5 0.4 -0.9 0.6 c -0.7 0.3 -1.5 0.3 -2.2 0 c -0.3 -0.1 -0.6 -0.3 -0.9 -0.6 c -0.2 -0.3 -0.4 -0.6 -0.6 -0.9 c -0.1 -0.3 -0.2 -0.7 -0.2 -1.1 c 0 -0.4 0.1 -0.8 0.2 -1.2 c 0.1 -0.3 0.3 -0.7 0.6 -0.9 c 0.2 -0.3 0.5 -0.4 0.9 -0.6 c 0.3 -0.1 0.7 -0.2 1.1 -0.2 s 0.8 0.1 1.1 0.2 c 0.3 0.1 0.6 0.3 0.9 0.6 c 0.2 0.2 0.4 0.6 0.6 0.9 C 117 65.1 117.1 65.5 117.1 65.9 z" stroke-linecap="round" />
</g>
		<g transform="matrix(1 0 0 1 -54.5 20.6)"  >
<path style="stroke: none; stroke-width: 1; stroke-dasharray: none; stroke-linecap: butt; stroke-dashoffset: 0; stroke-linejoin: miter; stroke-miterlimit: 4; fill: rgb(146,148,151); fill-rule: nonzero; opacity: 1;"  transform=" translate(-124.1, -65.95)" d="M 126.9 68.1 l -0.1 0.1 c -0.2 0.1 -0.4 0.2 -0.8 0.3 c -0.3 0.1 -0.8 0.2 -1.2 0.2 c -0.4 0 -0.8 -0.1 -1.1 -0.2 c -0.3 -0.1 -0.6 -0.3 -0.9 -0.5 c -0.3 -0.2 -0.5 -0.5 -0.6 -0.9 c -0.1 -0.3 -0.2 -0.8 -0.2 -1.2 c 0 -0.5 0.1 -0.9 0.2 -1.2 c 0.1 -0.4 0.3 -0.7 0.6 -0.9 c 0.2 -0.2 0.5 -0.4 0.8 -0.6 c 0.6 -0.2 1.3 -0.2 1.8 -0.1 c 0.2 0.1 0.4 0.1 0.6 0.2 c 0.2 0.1 0.3 0.2 0.5 0.3 c 0.1 0.1 0.2 0.2 0.3 0.3 l 0.1 0.1 l 0.1 -0.1 c 0.1 0 0.1 -0.1 0.2 -0.1 c 0.1 -0.1 0.1 -0.1 0.2 -0.2 c 0.1 -0.1 0.1 -0.2 0.2 -0.3 c 0.1 -0.1 0.1 -0.2 0.1 -0.4 c 0 -0.1 0 -0.3 -0.1 -0.4 c -0.1 -0.2 -0.3 -0.3 -0.5 -0.5 c -0.2 -0.1 -0.5 -0.3 -0.9 -0.4 c -0.4 -0.1 -0.9 -0.1 -1.4 -0.1 c -0.6 0 -1.2 0.1 -1.7 0.3 c -0.5 0.2 -1 0.5 -1.4 0.9 c -0.4 0.4 -0.7 0.9 -1 1.4 c -0.2 0.6 -0.4 1.2 -0.4 1.9 c 0 0.7 0.1 1.4 0.4 1.9 c 0.2 0.6 0.6 1 1 1.4 c 0.4 0.4 0.9 0.7 1.4 0.8 c 0.5 0.2 1.1 0.3 1.7 0.3 c 0.4 0 0.8 0 1.1 -0.1 c 0.3 -0.1 0.6 -0.1 0.9 -0.2 c 0.2 -0.1 0.4 -0.2 0.6 -0.3 c 0.2 -0.1 0.3 -0.2 0.4 -0.2 l 0.1 -0.1 L 126.9 68.1 z" stroke-linecap="round" />
</g>
		<g transform="matrix(1 0 0 1 -49.05 20.5)"  >
<path style="stroke: none; stroke-width: 1; stroke-dasharray: none; stroke-linecap: butt; stroke-dashoffset: 0; stroke-linejoin: miter; stroke-miterlimit: 4; fill: rgb(146,148,151); fill-rule: nonzero; opacity: 1;"  transform=" translate(-129.55, -65.85)" d="M 130.2 61.7 c -0.1 0 -0.3 -0.1 -0.5 -0.1 c -0.3 0 -0.5 0.1 -0.7 0.2 c -0.2 0.1 -0.3 0.3 -0.3 0.6 v 7.7 h 1.7 v -8.3 l -0.1 0 C 130.4 61.8 130.3 61.7 130.2 61.7 z" stroke-linecap="round" />
</g>
		<g transform="matrix(1 0 0 1 -42.5 20.4)"  >
<path style="stroke: none; stroke-width: 1; stroke-dasharray: none; stroke-linecap: butt; stroke-dashoffset: 0; stroke-linejoin: miter; stroke-miterlimit: 4; fill: rgb(146,148,151); fill-rule: nonzero; opacity: 1;"  transform=" translate(-136.1, -65.75)" d="M 140.3 69 c -0.2 -0.4 -0.3 -0.9 -0.6 -1.4 c -0.2 -0.5 -0.4 -1.1 -0.7 -1.7 c -0.2 -0.6 -0.5 -1.2 -0.7 -1.7 c -0.2 -0.5 -0.5 -1 -0.7 -1.5 c -0.2 -0.4 -0.4 -0.8 -0.5 -1 l 0 0 c 0 0 0 0 -0.1 -0.1 c -0.1 0 -0.1 -0.1 -0.2 -0.1 c -0.1 0 -0.2 -0.1 -0.3 -0.1 c -0.1 0 -0.2 0 -0.3 0 c -0.3 0 -0.6 0.1 -0.8 0.2 c -0.2 0.1 -0.4 0.4 -0.5 0.7 c -0.3 0.6 -0.6 1.3 -0.9 2 c -0.3 0.7 -0.6 1.3 -0.8 2 c -0.3 0.6 -0.5 1.3 -0.8 1.9 c -0.2 0.6 -0.5 1.2 -0.7 1.7 l -0.1 0.2 h 1.8 l 0 -0.1 c 0.1 -0.2 0.2 -0.6 0.3 -0.9 c 0.1 -0.3 0.3 -0.7 0.4 -1.1 h 3.8 c 0.1 0.1 0.1 0.3 0.2 0.4 c 0.1 0.2 0.2 0.4 0.2 0.6 l 0.2 0.6 c 0.1 0.2 0.1 0.3 0.2 0.4 l 0 0.1 h 1.9 l -0.1 -0.2 C 140.5 69.7 140.4 69.4 140.3 69 z M 137.3 66.4 h -2.5 c 0.1 -0.2 0.2 -0.5 0.3 -0.7 c 0.1 -0.3 0.3 -0.6 0.4 -1 c 0.1 -0.3 0.3 -0.6 0.4 -0.9 c 0.1 -0.2 0.1 -0.3 0.2 -0.4 c 0 0.1 0.1 0.2 0.1 0.3 c 0.1 0.3 0.3 0.6 0.4 0.9 c 0.1 0.3 0.3 0.7 0.4 1 C 137.1 65.9 137.2 66.2 137.3 66.4 z" stroke-linecap="round" />
</g>
		<g transform="matrix(1 0 0 1 -34.1 20.5)"  >
<path style="stroke: none; stroke-width: 1; stroke-dasharray: none; stroke-linecap: butt; stroke-dashoffset: 0; stroke-linejoin: miter; stroke-miterlimit: 4; fill: rgb(146,148,151); fill-rule: nonzero; opacity: 1;"  transform=" translate(-144.5, -65.85)" d="M 143.4 61.8 l -0.1 0 c 0 0 -0.1 0 -0.3 -0.1 c -0.1 0 -0.3 -0.1 -0.5 -0.1 c -0.3 0 -0.5 0.1 -0.7 0.2 c -0.2 0.1 -0.3 0.3 -0.3 0.6 v 7.7 h 6 v -1.6 h -4.2 V 61.8 z" stroke-linecap="round" />
</g>
		<g transform="matrix(1 0 0 1 -22.4 20.5)"  >
<path style="stroke: none; stroke-width: 1; stroke-dasharray: none; stroke-linecap: butt; stroke-dashoffset: 0; stroke-linejoin: miter; stroke-miterlimit: 4; fill: rgb(146,148,151); fill-rule: nonzero; opacity: 1;"  transform=" translate(-156.2, -65.85)" d="M 158.7 62.7 c -0.4 -0.4 -1 -0.7 -1.6 -0.9 c -0.6 -0.2 -1.3 -0.3 -2.1 -0.3 c -0.5 0 -1 0 -1.3 0 c -0.4 0 -0.6 0.1 -0.8 0.1 c -0.2 0.1 -0.4 0.2 -0.5 0.3 c -0.1 0.1 -0.1 0.3 -0.1 0.6 v 7.5 l 0.1 0 c 0 0 0.1 0 0.7 0.1 c 0.4 0 1 0.1 1.9 0.1 c 0.8 0 1.5 -0.1 2.2 -0.3 c 0.6 -0.2 1.2 -0.5 1.6 -0.9 c 0.4 -0.4 0.8 -0.8 1 -1.4 c 0.2 -0.5 0.3 -1.2 0.3 -1.8 c 0 -0.7 -0.1 -1.3 -0.3 -1.8 C 159.4 63.5 159.1 63 158.7 62.7 z M 158.2 65.9 c 0 0.9 -0.3 1.6 -0.8 2.1 c -0.5 0.5 -1.3 0.7 -2.4 0.7 c -0.4 0 -0.7 0 -0.9 0 c -0.1 0 -0.2 0 -0.2 0 v -5.5 c 0.1 0 0.1 0 0.2 0 c 0.2 0 0.5 0 0.9 0 c 0.6 0 1 0.1 1.4 0.2 c 0.4 0.1 0.7 0.3 1 0.6 c 0.3 0.2 0.4 0.5 0.6 0.9 C 158.1 65.1 158.2 65.4 158.2 65.9 z" stroke-linecap="round" />
</g>
		<g transform="matrix(1 0 0 1 -13.75 20.5)"  >
<path style="stroke: none; stroke-width: 1; stroke-dasharray: none; stroke-linecap: butt; stroke-dashoffset: 0; stroke-linejoin: miter; stroke-miterlimit: 4; fill: rgb(146,148,151); fill-rule: nonzero; opacity: 1;"  transform=" translate(-164.85, -65.85)" d="M 167.8 63.2 L 167.8 63.2 c 0.1 -0.1 0.1 -0.2 0.2 -0.3 c 0.1 -0.1 0.1 -0.3 0.1 -0.5 c 0 -0.5 -0.3 -0.8 -0.9 -0.8 h -4.6 c -0.7 0 -1 0.3 -1 1 v 7.5 h 6.4 v -1.6 h -4.7 v -1.9 h 4.3 l 0 -0.1 c 0 -0.1 0.1 -0.1 0.1 -0.3 c 0.1 -0.1 0.1 -0.3 0.1 -0.5 c 0 -0.5 -0.3 -0.8 -0.9 -0.8 h -3.7 v -1.7 H 167.8 z" stroke-linecap="round" />
</g>
		<g transform="matrix(1 0 0 1 -5.4 20.6)"  >
<path style="stroke: none; stroke-width: 1; stroke-dasharray: none; stroke-linecap: butt; stroke-dashoffset: 0; stroke-linejoin: miter; stroke-miterlimit: 4; fill: rgb(146,148,151); fill-rule: nonzero; opacity: 1;"  transform=" translate(-173.2, -65.95)" d="M 177 61.7 c -0.2 -0.1 -0.4 -0.1 -0.6 -0.1 c -0.3 0 -0.5 0.1 -0.7 0.2 c -0.1 0.1 -0.3 0.3 -0.4 0.7 c -0.2 0.4 -0.4 0.9 -0.6 1.4 c -0.2 0.5 -0.4 1.1 -0.6 1.6 c -0.2 0.5 -0.4 1.1 -0.6 1.6 c -0.2 0.4 -0.3 0.7 -0.4 1 c -0.2 -0.4 -0.4 -0.8 -0.6 -1.3 c -0.2 -0.6 -0.5 -1.2 -0.7 -1.8 c -0.2 -0.6 -0.5 -1.2 -0.7 -1.7 c -0.2 -0.6 -0.4 -1 -0.5 -1.4 l 0 -0.1 l -0.1 0 c 0 0 -0.1 0 -0.2 -0.1 c -0.1 -0.1 -0.3 -0.1 -0.5 -0.1 c -0.3 0 -0.5 0.1 -0.6 0.2 c -0.1 0.1 -0.2 0.3 -0.2 0.6 c 0 0.2 0 0.4 0.1 0.6 c 0.1 0.2 0.1 0.4 0.2 0.6 c 0 0.1 0.1 0.3 0.2 0.6 c 0.1 0.3 0.2 0.6 0.4 0.9 c 0.1 0.4 0.3 0.7 0.5 1.2 c 0.2 0.4 0.4 0.8 0.6 1.3 c 0.2 0.4 0.4 0.9 0.6 1.3 c 0.2 0.4 0.4 0.9 0.6 1.3 l 0 0.1 h 1.8 l 0 -0.1 c 0.2 -0.4 0.4 -0.8 0.6 -1.3 c 0.2 -0.5 0.4 -1 0.7 -1.5 s 0.5 -1.1 0.7 -1.6 c 0.2 -0.5 0.4 -1 0.6 -1.5 c 0.2 -0.5 0.4 -0.9 0.5 -1.2 c 0.1 -0.4 0.2 -0.6 0.3 -0.8 l 0 -0.1 l -0.1 -0.1 C 177.2 61.9 177.1 61.8 177 61.7 z" stroke-linecap="round" />
</g>
		<g transform="matrix(1 0 0 1 3.05 20.5)"  >
<path style="stroke: none; stroke-width: 1; stroke-dasharray: none; stroke-linecap: butt; stroke-dashoffset: 0; stroke-linejoin: miter; stroke-miterlimit: 4; fill: rgb(146,148,151); fill-rule: nonzero; opacity: 1;"  transform=" translate(-181.65, -65.85)" d="M 184.6 63.2 L 184.6 63.2 c 0.1 -0.1 0.1 -0.2 0.2 -0.3 c 0.1 -0.1 0.1 -0.3 0.1 -0.5 c 0 -0.5 -0.3 -0.8 -0.9 -0.8 h -4.6 c -0.7 0 -1 0.3 -1 1 v 7.5 h 6.4 v -1.6 h -4.7 v -1.9 h 4.3 l 0 -0.1 c 0 -0.1 0.1 -0.1 0.1 -0.3 c 0.1 -0.1 0.1 -0.3 0.1 -0.5 c 0 -0.5 -0.3 -0.8 -0.9 -0.8 h -3.7 v -1.7 H 184.6 z" stroke-linecap="round" />
</g>
		<g transform="matrix(1 0 0 1 10.7 20.5)"  >
<path style="stroke: none; stroke-width: 1; stroke-dasharray: none; stroke-linecap: butt; stroke-dashoffset: 0; stroke-linejoin: miter; stroke-miterlimit: 4; fill: rgb(146,148,151); fill-rule: nonzero; opacity: 1;"  transform=" translate(-189.3, -65.85)" d="M 188.2 61.8 l -0.1 0 c 0 0 -0.1 0 -0.3 -0.1 c -0.1 0 -0.3 -0.1 -0.5 -0.1 c -0.3 0 -0.5 0.1 -0.7 0.2 c -0.2 0.1 -0.3 0.3 -0.3 0.6 v 7.7 h 6 v -1.6 h -4.2 V 61.8 z" stroke-linecap="round" />
</g>
		<g transform="matrix(1 0 0 1 18.7 20.52)"  >
<path style="stroke: none; stroke-width: 1; stroke-dasharray: none; stroke-linecap: butt; stroke-dashoffset: 0; stroke-linejoin: miter; stroke-miterlimit: 4; fill: rgb(146,148,151); fill-rule: nonzero; opacity: 1;"  transform=" translate(-197.3, -65.86)" d="M 200.5 62.7 c -0.4 -0.4 -0.9 -0.7 -1.4 -0.9 c -1.1 -0.5 -2.5 -0.5 -3.6 0 c -0.5 0.2 -1 0.5 -1.4 0.9 c -0.4 0.4 -0.7 0.9 -1 1.4 c -0.2 0.5 -0.3 1.1 -0.3 1.8 c 0 0.6 0.1 1.2 0.3 1.8 c 0.2 0.5 0.6 1 1 1.4 c 0.4 0.4 0.9 0.7 1.4 0.9 c 0.5 0.2 1.1 0.3 1.8 0.3 s 1.2 -0.1 1.8 -0.3 c 0.5 -0.2 1 -0.5 1.4 -0.9 c 0.4 -0.4 0.7 -0.9 1 -1.4 c 0.2 -0.5 0.3 -1.1 0.3 -1.8 s -0.1 -1.2 -0.3 -1.8 C 201.2 63.6 200.9 63.1 200.5 62.7 z M 200 65.9 c 0 0.4 -0.1 0.8 -0.2 1.1 c -0.1 0.3 -0.3 0.6 -0.6 0.9 c -0.2 0.2 -0.5 0.4 -0.9 0.6 c -0.7 0.3 -1.5 0.3 -2.2 0 c -0.3 -0.1 -0.6 -0.3 -0.9 -0.6 c -0.2 -0.3 -0.4 -0.6 -0.6 -0.9 c -0.1 -0.3 -0.2 -0.7 -0.2 -1.1 c 0 -0.4 0.1 -0.8 0.2 -1.2 c 0.1 -0.3 0.3 -0.7 0.6 -0.9 c 0.2 -0.3 0.5 -0.4 0.9 -0.6 c 0.3 -0.1 0.7 -0.2 1.1 -0.2 c 0.4 0 0.8 0.1 1.1 0.2 c 0.3 0.1 0.6 0.3 0.9 0.6 c 0.2 0.2 0.4 0.6 0.6 0.9 C 199.9 65.1 200 65.5 200 65.9 z" stroke-linecap="round" />
</g>
		<g transform="matrix(1 0 0 1 28.35 20.5)"  >
<path style="stroke: none; stroke-width: 1; stroke-dasharray: none; stroke-linecap: butt; stroke-dashoffset: 0; stroke-linejoin: miter; stroke-miterlimit: 4; fill: rgb(146,148,151); fill-rule: nonzero; opacity: 1;"  transform=" translate(-206.95, -65.85)" d="M 209.2 62.3 c -0.6 -0.5 -1.6 -0.8 -2.9 -0.8 c -0.6 0 -1.1 0 -1.4 0 c -0.4 0 -0.6 0.1 -0.7 0.1 c -0.2 0 -0.4 0.1 -0.5 0.3 c -0.2 0.1 -0.2 0.4 -0.2 0.7 v 7.6 h 1.7 v -2.9 c 0 0 0 0 0 0 c 0.1 0 0.2 0 0.4 0 c 0.1 0 0.3 0 0.5 0 c 0.9 0.1 1.7 0 2.2 -0.2 c 0.5 -0.1 0.9 -0.4 1.2 -0.6 c 0.3 -0.3 0.5 -0.6 0.7 -0.9 c 0.1 -0.4 0.2 -0.7 0.2 -1.2 C 210.2 63.5 209.9 62.8 209.2 62.3 z M 208.4 64.4 c 0 0.2 0 0.4 -0.1 0.5 c -0.1 0.2 -0.2 0.3 -0.3 0.4 c -0.2 0.1 -0.4 0.2 -0.6 0.3 c -0.3 0.1 -0.6 0.1 -1.1 0.1 c -0.4 0 -0.7 0 -1 -0.1 l -0.3 0 c 0 0 0 0 -0.1 0 v -2.6 c 0.1 0 0.2 0 0.3 0 c 0.2 0 0.5 0 0.9 0 c 0.5 0 0.8 0 1.1 0.1 c 0.3 0.1 0.5 0.2 0.7 0.3 c 0.2 0.1 0.3 0.3 0.3 0.4 C 208.4 64.1 208.4 64.2 208.4 64.4 z" stroke-linecap="round" />
</g>
		<g transform="matrix(1 0 0 1 37.6 20.5)"  >
<path style="stroke: none; stroke-width: 1; stroke-dasharray: none; stroke-linecap: butt; stroke-dashoffset: 0; stroke-linejoin: miter; stroke-miterlimit: 4; fill: rgb(146,148,151); fill-rule: nonzero; opacity: 1;"  transform=" translate(-216.2, -65.85)" d="M 221 69 c 0 -0.4 0 -0.9 -0.1 -1.4 c 0 -0.5 -0.1 -1 -0.1 -1.6 l -0.2 -3 c 0 -0.4 0 -0.7 -0.1 -1 l 0 -0.1 l 0 0 c 0 0 -0.1 -0.1 -0.4 -0.2 c -0.2 -0.1 -0.4 -0.1 -0.6 -0.1 c -0.3 0 -0.5 0.1 -0.7 0.2 c -0.2 0.1 -0.3 0.3 -0.5 0.6 c -0.1 0.2 -0.2 0.5 -0.4 0.8 l -0.6 1.2 c -0.2 0.4 -0.4 0.8 -0.6 1.2 c -0.1 0.3 -0.3 0.5 -0.4 0.7 c -0.1 -0.2 -0.3 -0.5 -0.4 -0.8 c -0.2 -0.4 -0.5 -0.9 -0.7 -1.4 l -1.1 -2.2 l 0 0 c -0.1 -0.1 -0.2 -0.2 -0.4 -0.2 c -0.2 -0.1 -0.4 -0.1 -0.7 -0.1 c -0.3 0 -0.5 0.1 -0.7 0.2 c -0.2 0.1 -0.3 0.4 -0.4 0.7 c 0 0.2 0 0.5 -0.1 0.9 c 0 0.4 0 0.8 -0.1 1.3 c 0 0.5 -0.1 1 -0.1 1.5 c 0 0.5 -0.1 1 -0.1 1.5 c 0 0.5 -0.1 0.9 -0.1 1.3 c 0 0.4 0 0.7 0 0.9 l 0 0.2 h 1.7 l 0 -0.2 c 0 -0.2 0 -0.4 0 -0.8 l 0.1 -1.1 c 0 -0.4 0 -0.8 0.1 -1.2 c 0 -0.4 0 -0.8 0.1 -1.2 c 0 -0.4 0 -0.7 0.1 -1.1 c 0 -0.1 0 -0.1 0 -0.2 c 0.1 0.2 0.2 0.4 0.3 0.6 c 0.2 0.4 0.4 0.8 0.6 1.3 c 0.2 0.4 0.4 0.8 0.6 1.2 c 0.2 0.4 0.3 0.7 0.4 0.9 l 0 0.1 h 1.4 l 0 -0.1 c 0.1 -0.1 0.2 -0.3 0.3 -0.6 c 0.1 -0.2 0.2 -0.5 0.4 -0.8 c 0.1 -0.3 0.3 -0.6 0.4 -0.9 l 0.4 -0.9 c 0.1 -0.3 0.3 -0.5 0.4 -0.8 l 0 0 l 0.1 1.1 c 0 0.4 0 0.8 0.1 1.3 c 0 0.5 0 0.9 0.1 1.3 c 0 0.4 0 0.8 0.1 1.1 c 0 0.3 0 0.5 0 0.7 l 0 0.2 h 1.7 l 0 -0.2 C 221 69.7 221 69.4 221 69 z" stroke-linecap="round" />
</g>
		<g transform="matrix(1 0 0 1 47.55 20.5)"  >
<path style="stroke: none; stroke-width: 1; stroke-dasharray: none; stroke-linecap: butt; stroke-dashoffset: 0; stroke-linejoin: miter; stroke-miterlimit: 4; fill: rgb(146,148,151); fill-rule: nonzero; opacity: 1;"  transform=" translate(-226.15, -65.85)" d="M 229.1 63.2 L 229.1 63.2 c 0.1 -0.1 0.1 -0.2 0.2 -0.3 c 0.1 -0.1 0.1 -0.3 0.1 -0.5 c 0 -0.5 -0.3 -0.8 -0.9 -0.8 h -4.6 c -0.7 0 -1 0.3 -1 1 v 7.5 h 6.4 v -1.6 h -4.7 v -1.9 h 4.3 l 0 -0.1 c 0 -0.1 0.1 -0.1 0.1 -0.3 c 0.1 -0.1 0.1 -0.3 0.1 -0.5 c 0 -0.5 -0.3 -0.8 -0.9 -0.8 h -3.7 v -1.7 H 229.1 z" stroke-linecap="round" />
</g>
		<g transform="matrix(1 0 0 1 56.3 20.4)"  >
<path style="stroke: none; stroke-width: 1; stroke-dasharray: none; stroke-linecap: butt; stroke-dashoffset: 0; stroke-linejoin: miter; stroke-miterlimit: 4; fill: rgb(146,148,151); fill-rule: nonzero; opacity: 1;"  transform=" translate(-234.9, -65.75)" d="M 238 61.7 c -0.1 0 -0.3 -0.1 -0.5 -0.1 c -0.3 0 -0.5 0.1 -0.6 0.2 c -0.2 0.1 -0.2 0.3 -0.2 0.6 v 4.7 c -0.1 -0.2 -0.2 -0.3 -0.3 -0.5 c -0.2 -0.4 -0.5 -0.7 -0.7 -1.1 l -0.8 -1.2 c -0.3 -0.4 -0.5 -0.7 -0.8 -1.1 c -0.2 -0.3 -0.4 -0.6 -0.6 -0.9 c -0.2 -0.2 -0.3 -0.4 -0.4 -0.5 l 0 0 c -0.1 0 -0.2 -0.1 -0.3 -0.2 c -0.2 -0.1 -0.4 -0.1 -0.6 -0.1 c -0.3 0 -0.5 0.1 -0.7 0.2 c -0.2 0.1 -0.3 0.4 -0.3 0.7 v 7.6 h 1.7 v -5.8 c 0.1 0.2 0.3 0.4 0.4 0.5 c 0.3 0.4 0.5 0.7 0.8 1.1 l 1.5 2.3 c 0.2 0.4 0.5 0.7 0.7 1 l 0.6 0.9 h 1.7 v -8.3 l -0.1 0 C 238.2 61.8 238.1 61.7 238 61.7 z" stroke-linecap="round" />
</g>
		<g transform="matrix(1 0 0 1 64.85 20.55)"  >
<path style="stroke: none; stroke-width: 1; stroke-dasharray: none; stroke-linecap: butt; stroke-dashoffset: 0; stroke-linejoin: miter; stroke-miterlimit: 4; fill: rgb(146,148,151); fill-rule: nonzero; opacity: 1;"  transform=" translate(-243.45, -65.9)" d="M 246.6 61.6 h -6.9 l 0 0.1 c 0 0 -0.1 0.1 -0.1 0.3 c -0.1 0.1 -0.1 0.3 -0.1 0.5 c 0 0.5 0.3 0.8 0.9 0.8 h 2.2 v 6.9 h 1.7 v -6.9 h 2.9 l 0 -0.1 c 0 -0.1 0.1 -0.1 0.1 -0.3 c 0 -0.1 0.1 -0.3 0.1 -0.5 C 247.4 61.9 247.1 61.6 246.6 61.6 z" stroke-linecap="round" />
</g>
		<g transform="matrix(1 0 0 1 77.1 20.6)"  >
<path style="stroke: none; stroke-width: 1; stroke-dasharray: none; stroke-linecap: butt; stroke-dashoffset: 0; stroke-linejoin: miter; stroke-miterlimit: 4; fill: rgb(146,148,151); fill-rule: nonzero; opacity: 1;"  transform=" translate(-255.7, -65.95)" d="M 258 65.7 c 0 0 0.1 -0.1 0.1 -0.1 c 0.1 -0.1 0.3 -0.2 0.4 -0.4 c 0.1 -0.2 0.2 -0.3 0.3 -0.5 c 0.1 -0.2 0.1 -0.5 0.1 -0.7 c 0 -0.3 -0.1 -0.6 -0.2 -0.9 c -0.1 -0.3 -0.3 -0.6 -0.6 -0.8 c -0.3 -0.2 -0.7 -0.4 -1.2 -0.5 c -0.5 -0.1 -1.1 -0.2 -1.8 -0.2 c -0.7 0 -1.2 0 -1.5 0 c -0.4 0 -0.6 0.1 -0.8 0.1 c -0.2 0 -0.4 0.1 -0.5 0.3 c -0.2 0.1 -0.2 0.4 -0.2 0.7 v 7.6 h 0.2 c 0 0 0.1 0 0.3 0 c 0.2 0 0.4 0 0.7 0 c 0.3 0 0.6 0 0.9 0 c 0.3 0 0.7 0 1.1 0 c 0.8 0 1.5 -0.1 2 -0.2 c 0.5 -0.1 0.9 -0.3 1.2 -0.5 c 0.3 -0.2 0.5 -0.5 0.6 -0.8 c 0.1 -0.3 0.2 -0.6 0.2 -1 c 0 -0.5 -0.1 -1 -0.4 -1.3 C 258.5 66.1 258.3 65.8 258 65.7 z M 257.1 66.9 c 0.1 0.1 0.2 0.2 0.2 0.3 c 0 0.1 0.1 0.3 0.1 0.4 c 0 0.2 0 0.4 -0.1 0.5 c -0.1 0.1 -0.2 0.2 -0.3 0.3 c -0.2 0.1 -0.4 0.2 -0.6 0.2 c -0.3 0.1 -0.6 0.1 -1 0.1 c -0.5 0 -0.9 0 -1.2 0 c -0.2 0 -0.3 0 -0.4 0 v -2.1 h 2.2 c 0.3 0 0.5 0 0.7 0.1 C 256.8 66.7 257 66.8 257.1 66.9 z M 257 64.4 c 0 0.1 -0.1 0.2 -0.2 0.3 c -0.1 0.1 -0.2 0.2 -0.4 0.2 c -0.2 0.1 -0.4 0.1 -0.7 0.1 h -2.1 v -1.9 c 0.1 0 0.2 0 0.4 0 c 0.3 0 0.7 0 1.1 0 c 0.4 0 0.7 0 0.9 0.1 c 0.2 0.1 0.4 0.1 0.6 0.2 c 0.1 0.1 0.2 0.2 0.3 0.3 c 0.1 0.1 0.1 0.3 0.1 0.4 C 257.1 64.2 257.1 64.3 257 64.4 z" stroke-linecap="round" />
</g>
		<g transform="matrix(1 0 0 1 85.7 20.4)"  >
<path style="stroke: none; stroke-width: 1; stroke-dasharray: none; stroke-linecap: butt; stroke-dashoffset: 0; stroke-linejoin: miter; stroke-miterlimit: 4; fill: rgb(146,148,151); fill-rule: nonzero; opacity: 1;"  transform=" translate(-264.3, -65.75)" d="M 268.5 69 c -0.2 -0.4 -0.3 -0.9 -0.6 -1.4 c -0.2 -0.5 -0.4 -1.1 -0.7 -1.7 c -0.2 -0.6 -0.5 -1.2 -0.7 -1.7 c -0.2 -0.5 -0.5 -1 -0.7 -1.5 c -0.2 -0.4 -0.4 -0.8 -0.5 -1 l 0 0 c 0 0 0 0 -0.1 -0.1 c -0.1 0 -0.1 -0.1 -0.2 -0.1 c -0.1 0 -0.2 -0.1 -0.3 -0.1 c -0.1 0 -0.2 0 -0.3 0 c -0.3 0 -0.6 0.1 -0.8 0.2 s -0.4 0.4 -0.5 0.7 c -0.3 0.6 -0.6 1.3 -0.9 2 c -0.3 0.7 -0.6 1.3 -0.8 2 c -0.3 0.6 -0.5 1.3 -0.8 1.9 c -0.2 0.6 -0.5 1.2 -0.7 1.7 l -0.1 0.2 h 1.8 l 0 -0.1 c 0.1 -0.2 0.2 -0.6 0.3 -0.9 c 0.1 -0.3 0.3 -0.7 0.4 -1.1 h 3.8 c 0.1 0.1 0.1 0.3 0.2 0.4 c 0.1 0.2 0.2 0.4 0.2 0.6 s 0.1 0.4 0.2 0.6 c 0.1 0.2 0.1 0.3 0.2 0.4 l 0 0.1 h 1.9 l -0.1 -0.2 C 268.8 69.7 268.7 69.4 268.5 69 z M 265.6 66.4 H 263 c 0.1 -0.2 0.2 -0.5 0.3 -0.7 c 0.1 -0.3 0.3 -0.6 0.4 -1 c 0.1 -0.3 0.3 -0.6 0.4 -0.9 c 0.1 -0.2 0.1 -0.3 0.2 -0.4 c 0 0.1 0.1 0.2 0.1 0.3 c 0.1 0.3 0.3 0.6 0.4 0.9 c 0.1 0.3 0.3 0.7 0.4 1 C 265.4 65.9 265.5 66.2 265.6 66.4 z" stroke-linecap="round" />
</g>
		<g transform="matrix(1 0 0 1 95.2 20.4)"  >
<path style="stroke: none; stroke-width: 1; stroke-dasharray: none; stroke-linecap: butt; stroke-dashoffset: 0; stroke-linejoin: miter; stroke-miterlimit: 4; fill: rgb(146,148,151); fill-rule: nonzero; opacity: 1;"  transform=" translate(-273.8, -65.75)" d="M 276.9 61.7 c -0.1 0 -0.3 -0.1 -0.5 -0.1 c -0.3 0 -0.5 0.1 -0.6 0.2 c -0.2 0.1 -0.2 0.3 -0.2 0.6 v 4.7 c -0.1 -0.2 -0.2 -0.3 -0.3 -0.5 c -0.2 -0.4 -0.5 -0.7 -0.7 -1.1 l -0.8 -1.2 c -0.3 -0.4 -0.5 -0.7 -0.8 -1.1 c -0.2 -0.3 -0.4 -0.6 -0.6 -0.9 c -0.2 -0.2 -0.3 -0.4 -0.4 -0.5 l 0 0 c -0.1 0 -0.2 -0.1 -0.3 -0.2 c -0.2 -0.1 -0.4 -0.1 -0.6 -0.1 c -0.3 0 -0.5 0.1 -0.7 0.2 c -0.2 0.1 -0.3 0.4 -0.3 0.7 v 7.6 h 1.7 v -5.8 c 0.1 0.2 0.3 0.4 0.4 0.5 c 0.2 0.4 0.5 0.7 0.8 1.1 l 1.5 2.3 c 0.2 0.4 0.5 0.7 0.7 1 l 0.6 0.9 h 1.7 v -8.3 l -0.1 0 C 277.1 61.8 277 61.7 276.9 61.7 z" stroke-linecap="round" />
</g>
		<g transform="matrix(1 0 0 1 104.2 20.6)"  >
<path style="stroke: none; stroke-width: 1; stroke-dasharray: none; stroke-linecap: butt; stroke-dashoffset: 0; stroke-linejoin: miter; stroke-miterlimit: 4; fill: rgb(146,148,151); fill-rule: nonzero; opacity: 1;"  transform=" translate(-282.8, -65.95)" d="M 286.5 69.9 c -0.6 -0.8 -1.2 -1.5 -1.9 -2.2 c -0.7 -0.7 -1.4 -1.3 -2.1 -2 c 0.1 -0.1 0.3 -0.2 0.4 -0.4 c 0.2 -0.2 0.5 -0.4 0.8 -0.7 l 0.8 -0.7 c 0.3 -0.2 0.5 -0.5 0.8 -0.7 c 0.2 -0.2 0.4 -0.4 0.6 -0.5 c 0.2 -0.2 0.3 -0.2 0.3 -0.3 l 0.1 -0.1 l -0.1 -0.1 c -0.1 -0.1 -0.2 -0.2 -0.3 -0.3 c -0.2 -0.1 -0.4 -0.2 -0.7 -0.2 c -0.3 0 -0.5 0.1 -0.7 0.2 c -0.2 0.1 -0.4 0.2 -0.6 0.4 c -0.2 0.1 -0.4 0.3 -0.6 0.6 c -0.3 0.2 -0.6 0.5 -0.9 0.8 c -0.3 0.3 -0.6 0.6 -0.9 0.9 c -0.2 0.2 -0.3 0.3 -0.5 0.4 v -3.1 l -0.1 0 c 0 0 -0.1 0 -0.3 -0.1 c -0.1 0 -0.3 -0.1 -0.5 -0.1 c -0.3 0 -0.5 0.1 -0.7 0.2 c -0.2 0.1 -0.3 0.3 -0.3 0.6 v 7.7 h 1.7 v -3.6 c 0.3 0.2 0.5 0.4 0.8 0.7 c 0.4 0.3 0.7 0.7 1 1 c 0.3 0.3 0.6 0.7 0.9 1 c 0.3 0.3 0.5 0.6 0.7 0.8 l 0 0.1 h 2.2 L 286.5 69.9 z" stroke-linecap="round" />
</g>
		<g transform="matrix(1 0 0 1 98.8 -2.75)"  >
<circle style="stroke: none; stroke-width: 1; stroke-dasharray: none; stroke-linecap: butt; stroke-dashoffset: 0; stroke-linejoin: miter; stroke-miterlimit: 4; fill: rgb(146,148,151); fill-rule: nonzero; opacity: 1;"  cx="0" cy="0" r="1.2" />
</g>
		<g transform="matrix(1 0 0 1 8.75 2.2)"  >
<path style="stroke: none; stroke-width: 1; stroke-dasharray: none; stroke-linecap: butt; stroke-dashoffset: 0; stroke-linejoin: miter; stroke-miterlimit: 4; fill: rgb(146,148,151); fill-rule: nonzero; opacity: 1;"  transform=" translate(-187.35, -47.55)" d="M 186.2 42.1 v 12.2 h 2.3 V 41 c -0.2 0 -0.6 -0.2 -1 -0.2 C 186.5 40.8 186.2 41.2 186.2 42.1 z" stroke-linecap="round" />
</g>
		<g transform="matrix(1 0 0 1 -0.6 2.2)"  >
<path style="stroke: none; stroke-width: 1; stroke-dasharray: none; stroke-linecap: butt; stroke-dashoffset: 0; stroke-linejoin: miter; stroke-miterlimit: 4; fill: rgb(146,148,151); fill-rule: nonzero; opacity: 1;"  transform=" translate(-178, -47.55)" d="M 181.3 42.1 v 8.4 c 0 1.2 -0.6 1.8 -1.8 1.8 h -1.2 V 44 c -0.2 0 -0.6 -0.2 -1 -0.2 c -0.9 0 -1.3 0.4 -1.3 1.3 v 7.2 h -2.3 c -0.8 0 -1.2 0.3 -1.2 1.1 c 0 0.4 0.1 0.8 0.1 0.9 l 6.9 0 c 1.2 0 2.1 -0.4 2.9 -1.1 c 0.7 -0.7 1.1 -1.6 1.1 -2.7 V 41 c -0.2 0 -0.6 -0.2 -1 -0.2 C 181.7 40.8 181.3 41.2 181.3 42.1 z" stroke-linecap="round" />
</g>
		<g transform="matrix(1 0 0 1 -62.8 4.35)"  >
<path style="stroke: none; stroke-width: 1; stroke-dasharray: none; stroke-linecap: butt; stroke-dashoffset: 0; stroke-linejoin: miter; stroke-miterlimit: 4; fill: rgb(146,148,151); fill-rule: nonzero; opacity: 1;"  transform=" translate(-115.8, -49.7)" d="M 127.1 47.1 c 0.6 0 1.1 0.2 1.6 0.4 c 0.5 0.2 0.8 0.1 1 -0.2 c 0.2 -0.3 0.5 -1 0.6 -1.2 c -0.7 -0.4 -2.1 -1 -3.1 -1 c -2.6 0 -4.3 1.5 -4.3 4 v 3.2 h -3.5 c -1 0 -1.8 -0.8 -1.8 -1.8 v -4.9 c -0.1 0 -0.2 0 -0.3 -0.1 c -0.3 -0.1 -0.5 -0.1 -0.7 -0.1 c -0.9 0 -1.3 0.4 -1.3 1.3 v 3.8 c 0 1.2 -0.6 1.8 -1.8 1.8 h -2.2 c -1.2 0 -1.7 -0.6 -1.8 -1.8 v -4.7 c -0.4 -0.1 -0.8 -0.2 -1.3 -0.3 c -0.4 -0.1 -0.9 -0.2 -1.4 -0.2 c -0.5 -0.1 -1 -0.1 -1.5 -0.1 c -0.8 0 -1.5 0.1 -2 0.3 c -0.5 0.2 -1 0.5 -1.3 0.9 c -0.3 0.4 -0.6 0.9 -0.7 1.4 c -0.2 0.5 -0.2 1.1 -0.2 1.7 c 0 1 0.1 1.9 0.4 2.5 c 0.3 0.6 0.6 1.1 1 1.4 c 0.4 0.3 0.9 0.6 1.3 0.7 c 0.5 0.1 1 0.2 1.5 0.2 c 0.5 0 1 -0.1 1.5 -0.2 c 0.5 -0.1 0.9 -0.3 1.3 -0.7 c 0.1 -0.1 0.1 -0.1 0.2 -0.2 l 0.1 -0.1 l 0.1 0.1 c 0.5 0.7 1.5 1 2.9 1 h 2.4 c 1.1 0 2.1 -0.3 2.8 -0.9 l 0.1 0 l 0.1 0 c 0.7 0.6 1.6 0.9 2.7 0.9 h 10.9 c 0 -0.1 0.1 -0.5 0.1 -0.9 c 0 -0.8 -0.3 -1.1 -1.1 -1.1 h -3.9 v -3.4 C 125.2 47.9 126 47.1 127.1 47.1 z M 107.3 51.6 L 107.3 51.6 c -0.3 0.2 -0.7 0.6 -1.9 0.6 c -0.6 0 -1.1 -0.2 -1.5 -0.6 c -0.4 -0.4 -0.5 -1.1 -0.5 -2 c 0 -0.5 0.1 -0.9 0.2 -1.2 c 0.1 -0.3 0.3 -0.6 0.5 -0.8 c 0.2 -0.2 0.4 -0.3 0.7 -0.4 c 0.3 -0.1 0.6 -0.1 0.9 -0.1 c 0.2 0 0.4 0 0.7 0 c 0.3 0 0.6 0.1 0.9 0.1 l 0.1 0 V 51.6 z" stroke-linecap="round" />
</g>
		<g transform="matrix(1 0 0 1 -27.3 2.6)"  >
<path style="stroke: none; stroke-width: 1; stroke-dasharray: none; stroke-linecap: butt; stroke-dashoffset: 0; stroke-linejoin: miter; stroke-miterlimit: 4; fill: rgb(146,148,151); fill-rule: nonzero; opacity: 1;"  transform=" translate(-151.3, -47.95)" d="M 165.5 45.1 c -1.4 0 -2.8 0.4 -4.2 1.2 l 0.4 1.2 c 0.1 0.2 0.2 0.3 0.3 0.3 c 0.2 0.1 0.5 0.1 0.7 0 c 1.1 -0.5 1.9 -0.7 2.8 -0.7 c 1.2 0 2.1 0.5 2.5 1.5 c 0.3 0.7 0.4 1.5 0.4 2.9 v 0.6 h -10.1 c -1 0 -1.8 -0.8 -1.8 -1.8 v -4.9 c -0.2 0 -0.6 -0.2 -1 -0.2 c -0.9 0 -1.3 0.4 -1.3 1.3 v 3.8 c 0 1.2 -0.6 1.8 -1.8 1.8 h -1.7 c -1.3 0 -2 -0.6 -2.3 -1.8 c -0.2 -1.3 -0.6 -2.2 -1.2 -2.7 c -0.7 -0.6 -1.7 -1 -3 -1 c -2.5 0 -3.9 1.2 -4.2 3.7 c -0.1 1.2 -0.8 1.7 -2.2 1.7 h -2.5 c -0.5 0 -0.8 -0.2 -0.8 -0.8 l 0 -10.5 c -0.2 0 -0.6 -0.2 -1 -0.2 c -0.9 0 -1.3 0.4 -1.3 1.3 v 9.5 c 0 1.7 1.1 2.8 2.8 2.8 h 2.8 c 0.9 0 1.7 -0.3 2.3 -0.8 l 0.1 -0.1 l 0 0.1 c 0.7 1.4 2.1 2.1 3.8 2.1 c 1.9 0 3.3 -0.9 3.9 -2.3 l 0 -0.1 l 0.1 0.1 c 0.6 0.5 1.3 0.9 2.1 0.9 l 0.1 0 v 0 l 2 0 c 1.1 0 2.1 -0.3 2.8 -0.9 l 0.1 0 l 0.1 0 c 0.7 0.6 1.6 0.9 2.7 0.9 h 11.5 c 0.6 0 1 -0.5 1 -1 v -1.6 c 0 -1.9 -0.2 -3.1 -0.8 -4.2 C 169.1 45.9 167.6 45.1 165.5 45.1 z M 144.4 53.7 c -0.8 0 -1.9 -0.3 -1.9 -2.5 c 0 -2.2 1.1 -2.4 1.9 -2.4 c 0.8 0 1.9 0.3 1.9 2.4 C 146.2 53.4 145.2 53.7 144.4 53.7 z" stroke-linecap="round" />
</g>
		<g transform="matrix(1 0 0 1 92.8 2.2)"  >
<path style="stroke: none; stroke-width: 1; stroke-dasharray: none; stroke-linecap: butt; stroke-dashoffset: 0; stroke-linejoin: miter; stroke-miterlimit: 4; fill: rgb(146,148,151); fill-rule: nonzero; opacity: 1;"  transform=" translate(-271.4, -47.55)" d="M 284.4 46.7 v 3.8 c 0 1.2 -0.6 1.8 -1.8 1.8 h -2.4 c -1.2 0 -1.8 -0.6 -1.8 -1.8 v -4.9 c -0.2 0 -0.6 -0.2 -1 -0.2 c -0.9 0 -1.3 0.4 -1.3 1.3 v 3.8 c 0 1.2 -0.6 1.8 -1.8 1.8 h -1.9 c -1.5 0 -2.2 -0.8 -2.2 -2.4 V 41 c -0.2 0 -0.6 -0.2 -1 -0.2 c -0.9 0 -1.3 0.4 -1.3 1.3 v 8.4 c 0 1.2 -0.6 1.8 -1.8 1.8 H 260 c -1.2 0 -1.8 -0.6 -1.8 -1.8 v -4.9 c -0.2 0 -0.6 -0.2 -1 -0.2 c -0.9 0 -1.3 0.4 -1.3 1.3 v 4 c 0 2.2 1.5 3.6 3.8 3.6 h 6.5 c 1.4 0 2.4 -0.4 3.1 -1.2 l 0.1 -0.1 l 0.1 0.1 c 0.7 0.8 1.6 1.2 2.9 1.2 h 2.2 c 1.1 0 2.1 -0.3 2.8 -0.9 l 0.1 0 l 0.1 0 c 0.7 0.6 1.6 0.9 2.7 0.9 h 2.6 c 1.2 0 2.2 -0.4 2.9 -1.1 c 0.7 -0.7 1.1 -1.6 1.1 -2.7 v -5 c -0.2 0 -0.6 -0.2 -1 -0.2 C 284.8 45.4 284.4 45.8 284.4 46.7 z" stroke-linecap="round" />
</g>
		<g transform="matrix(1 0 0 1 72.55 2.2)"  >
<path style="stroke: none; stroke-width: 1; stroke-dasharray: none; stroke-linecap: butt; stroke-dashoffset: 0; stroke-linejoin: miter; stroke-miterlimit: 4; fill: rgb(146,148,151); fill-rule: nonzero; opacity: 1;"  transform=" translate(-251.15, -47.55)" d="M 250 42.1 v 12.2 h 2.3 V 41 c -0.2 0 -0.6 -0.2 -1 -0.2 C 250.3 40.8 250 41.2 250 42.1 z" stroke-linecap="round" />
</g>
		<g transform="matrix(1 0 0 1 41.25 2.8)"  >
<path style="stroke: none; stroke-width: 1; stroke-dasharray: none; stroke-linecap: butt; stroke-dashoffset: 0; stroke-linejoin: miter; stroke-miterlimit: 4; fill: rgb(146,148,151); fill-rule: nonzero; opacity: 1;"  transform=" translate(-219.85, -48.15)" d="M 245.2 42.1 v 8.4 c 0 1.2 -0.6 1.8 -1.8 1.8 h -2.2 c -1.2 0 -1.8 -0.6 -1.8 -1.8 v -4.9 c -0.2 0 -0.6 -0.2 -1 -0.2 c -0.9 0 -1.3 0.4 -1.3 1.3 v 3.8 c 0 1.2 -0.6 1.8 -1.8 1.8 h -2.3 c -1.2 0 -1.8 -0.6 -1.8 -1.8 v -4.9 c -0.2 0 -0.6 -0.2 -1 -0.2 c -0.9 0 -1.3 0.4 -1.3 1.3 v 3.8 c 0 1.2 -0.6 1.8 -1.8 1.8 h -2 c -1.3 0 -2 -0.6 -2.3 -1.8 c -0.2 -1.3 -0.6 -2.2 -1.2 -2.7 c -0.7 -0.6 -1.7 -1 -3 -1 c -2.5 0 -3.9 1.2 -4.2 3.7 c -0.1 1.2 -0.9 1.8 -2.2 1.8 h -1.7 c -1.2 0 -1.8 -0.6 -1.8 -1.8 v -4.9 c -0.2 0 -0.6 -0.2 -1 -0.2 c -0.9 0 -1.3 0.4 -1.3 1.3 v 3.8 c 0 1.2 -0.6 1.8 -1.8 1.8 h -2.4 c -1.2 0 -1.7 -0.6 -1.7 -1.8 v -4.7 c -0.4 -0.1 -0.8 -0.2 -1.3 -0.3 c -0.4 -0.1 -0.9 -0.2 -1.4 -0.2 c -0.5 -0.1 -1 -0.1 -1.5 -0.1 c -0.8 0 -1.5 0.1 -2 0.3 c -0.5 0.2 -1 0.5 -1.3 0.9 c -0.3 0.4 -0.6 0.9 -0.7 1.4 c -0.2 0.5 -0.2 1.1 -0.2 1.7 c 0 1 0.1 1.9 0.4 2.5 c 0.3 0.6 0.6 1.1 1 1.4 c 0.4 0.3 0.9 0.6 1.3 0.7 c 0.5 0.1 1 0.2 1.5 0.2 c 0.5 0 1 -0.1 1.5 -0.2 c 0.5 -0.1 0.9 -0.3 1.3 -0.7 c 0.1 -0.1 0.1 -0.1 0.2 -0.2 l 0.1 -0.1 l 0.1 0.1 c 0.5 0.7 1.5 1 2.9 1 h 2.6 c 1.1 0 2.1 -0.3 2.8 -0.9 l 0.1 0 l 0.1 0 c 0.7 0.6 1.6 0.9 2.7 0.9 h 1.9 c 0.9 0 1.7 -0.3 2.3 -0.8 l 0.1 -0.1 l 0 0.1 c 0.7 1.4 2.1 2.1 3.8 2.1 c 1.9 0 3.3 -0.9 3.9 -2.3 l 0 -0.1 l 0.1 0.1 c 0.6 0.5 1.3 1 2.1 1 h 2.4 c 1.1 0 2.1 -0.3 2.8 -0.9 l 0.1 0 l 0.1 0 c 0.7 0.6 1.6 0.9 2.7 0.9 h 2.5 c 1.1 0 2.1 -0.3 2.8 -0.9 l 0.1 0 l 0.1 0 c 0.7 0.6 1.6 0.9 2.7 0.9 h 2.4 c 1.2 0 2.1 -0.4 2.9 -1.1 c 0.7 -0.7 1.1 -1.6 1.1 -2.7 V 41 c -0.2 0 -0.6 -0.2 -1 -0.2 C 245.5 40.8 245.2 41.2 245.2 42.1 z M 198.5 51.6 L 198.5 51.6 c -0.3 0.2 -0.7 0.6 -1.9 0.6 c -0.6 0 -1.1 -0.2 -1.5 -0.6 c -0.4 -0.4 -0.5 -1.1 -0.5 -2 c 0 -0.5 0.1 -0.9 0.2 -1.2 c 0.1 -0.3 0.3 -0.6 0.5 -0.8 c 0.2 -0.2 0.4 -0.3 0.7 -0.4 c 0.3 -0.1 0.6 -0.1 0.9 -0.1 c 0.2 0 0.4 0 0.7 0 c 0.3 0 0.6 0.1 0.9 0.1 l 0.1 0 V 51.6 z M 218.9 53.7 c -0.3 0 -0.9 0 -1.3 -0.4 c -0.4 -0.4 -0.6 -1.1 -0.6 -2 c 0 -2.2 1.1 -2.4 1.9 -2.4 c 0.3 0 0.9 0 1.3 0.4 c 0.4 0.4 0.6 1.1 0.6 2 C 220.7 53.4 219.7 53.7 218.9 53.7 z" stroke-linecap="round" />
</g>
		<g transform="matrix(1 0 0 1 84.55 1.61)"  >
<path style="stroke: none; stroke-width: 1; stroke-dasharray: none; stroke-linecap: butt; stroke-dashoffset: 0; stroke-linejoin: miter; stroke-miterlimit: 4; fill: rgb(146,148,151); fill-rule: nonzero; opacity: 1;"  transform=" translate(-263.15, -46.96)" d="M 264.7 48.4 c 0 -0.4 -0.2 -0.5 -0.5 -0.5 h -1.7 V 47 c 0 -0.5 0.4 -0.8 0.8 -0.8 c 0.2 0 0.5 0.1 0.7 0.2 c 0.2 0.1 0.4 0.1 0.5 -0.1 c 0.1 -0.2 0.3 -0.6 0.3 -0.6 c -0.3 -0.2 -1 -0.5 -1.4 -0.5 c -1.3 0 -1.9 0.8 -1.9 1.8 v 1.7 h 3.2 C 264.7 48.8 264.7 48.6 264.7 48.4 z" stroke-linecap="round" />
</g>
		<g transform="matrix(1 0 0 1 103 11.55)"  >
<circle style="stroke: none; stroke-width: 1; stroke-dasharray: none; stroke-linecap: butt; stroke-dashoffset: 0; stroke-linejoin: miter; stroke-miterlimit: 4; fill: rgb(146,148,151); fill-rule: nonzero; opacity: 1;"  cx="0" cy="0" r="1.2" />
</g>
		<g transform="matrix(1 0 0 1 -71.55 -2.8)"  >
<path style="stroke: none; stroke-width: 1; stroke-dasharray: none; stroke-linecap: butt; stroke-dashoffset: 0; stroke-linejoin: miter; stroke-miterlimit: 4; fill: rgb(146,148,151); fill-rule: nonzero; opacity: 1;"  transform=" translate(-107.04, -42.55)" d="M 107 43.8 c 0.7 0 1.3 -0.6 1.3 -1.3 c 0 -0.7 -0.6 -1.2 -1.3 -1.2 c -0.7 0 -1.2 0.6 -1.2 1.2 C 105.7 43.3 106.3 43.8 107 43.8 z" stroke-linecap="round" />
</g>
		<g transform="matrix(1 0 0 1 -74.9 -2.8)"  >
<path style="stroke: none; stroke-width: 1; stroke-dasharray: none; stroke-linecap: butt; stroke-dashoffset: 0; stroke-linejoin: miter; stroke-miterlimit: 4; fill: rgb(146,148,151); fill-rule: nonzero; opacity: 1;"  transform=" translate(-103.7, -42.55)" d="M 103.7 43.8 c 0.7 0 1.3 -0.6 1.3 -1.3 c 0 -0.7 -0.6 -1.2 -1.3 -1.2 c -0.7 0 -1.3 0.6 -1.3 1.2 C 102.4 43.3 103 43.8 103.7 43.8 z" stroke-linecap="round" />
</g>
		<g transform="matrix(1 0 0 1 -60.55 11.6)"  >
<path style="stroke: none; stroke-width: 1; stroke-dasharray: none; stroke-linecap: butt; stroke-dashoffset: 0; stroke-linejoin: miter; stroke-miterlimit: 4; fill: rgb(146,148,151); fill-rule: nonzero; opacity: 1;"  transform=" translate(-118.05, -56.95)" d="M 118 55.7 c -0.7 0 -1.2 0.6 -1.2 1.2 c 0 0.7 0.5 1.3 1.2 1.3 c 0.7 0 1.3 -0.6 1.3 -1.3 C 119.3 56.2 118.7 55.7 118 55.7 z" stroke-linecap="round" />
</g>
		<g transform="matrix(1 0 0 1 -63.75 11.6)"  >
<path style="stroke: none; stroke-width: 1; stroke-dasharray: none; stroke-linecap: butt; stroke-dashoffset: 0; stroke-linejoin: miter; stroke-miterlimit: 4; fill: rgb(146,148,151); fill-rule: nonzero; opacity: 1;"  transform=" translate(-114.85, -56.95)" d="M 114.8 55.7 c -0.7 0 -1.2 0.5 -1.2 1.2 c 0 0.7 0.5 1.3 1.2 1.3 c 0.7 0 1.3 -0.6 1.3 -1.3 C 116 56.2 115.5 55.7 114.8 55.7 z" stroke-linecap="round" />
</g>
		<g transform="matrix(1 0 0 1 -24.75 -2.8)"  >
<path style="stroke: none; stroke-width: 1; stroke-dasharray: none; stroke-linecap: butt; stroke-dashoffset: 0; stroke-linejoin: miter; stroke-miterlimit: 4; fill: rgb(146,148,151); fill-rule: nonzero; opacity: 1;"  transform=" translate(-153.84, -42.55)" d="M 153.8 43.8 c 0.7 0 1.3 -0.6 1.3 -1.3 c 0 -0.7 -0.6 -1.2 -1.3 -1.2 c -0.7 0 -1.2 0.5 -1.2 1.2 C 152.5 43.3 153.1 43.8 153.8 43.8 z" stroke-linecap="round" />
</g>
		<g transform="matrix(1 0 0 1 -21.55 -2.8)"  >
<path style="stroke: none; stroke-width: 1; stroke-dasharray: none; stroke-linecap: butt; stroke-dashoffset: 0; stroke-linejoin: miter; stroke-miterlimit: 4; fill: rgb(146,148,151); fill-rule: nonzero; opacity: 1;"  transform=" translate(-157.05, -42.55)" d="M 157 43.8 c 0.7 0 1.3 -0.6 1.3 -1.3 c 0 -0.7 -0.6 -1.2 -1.3 -1.2 c -0.7 0 -1.2 0.6 -1.2 1.2 C 155.8 43.3 156.3 43.8 157 43.8 z" stroke-linecap="round" />
</g>
		<g transform="matrix(1 0 0 1 -12.55 11.6)"  >
<path style="stroke: none; stroke-width: 1; stroke-dasharray: none; stroke-linecap: butt; stroke-dashoffset: 0; stroke-linejoin: miter; stroke-miterlimit: 4; fill: rgb(146,148,151); fill-rule: nonzero; opacity: 1;"  transform=" translate(-166.05, -56.95)" d="M 166 55.7 c -0.7 0 -1.2 0.6 -1.2 1.2 c 0 0.7 0.6 1.3 1.2 1.3 c 0.7 0 1.3 -0.6 1.3 -1.3 C 167.3 56.2 166.7 55.7 166 55.7 z" stroke-linecap="round" />
</g>
		<g transform="matrix(1 0 0 1 30.95 11.6)"  >
<path style="stroke: none; stroke-width: 1; stroke-dasharray: none; stroke-linecap: butt; stroke-dashoffset: 0; stroke-linejoin: miter; stroke-miterlimit: 4; fill: rgb(146,148,151); fill-rule: nonzero; opacity: 1;"  transform=" translate(-209.55, -56.95)" d="M 209.5 55.7 c -0.7 0 -1.2 0.6 -1.2 1.2 c 0 0.7 0.6 1.3 1.2 1.3 c 0.7 0 1.3 -0.6 1.3 -1.3 C 210.7 56.2 210.1 55.7 209.5 55.7 z" stroke-linecap="round" />
</g>
		<g transform="matrix(1 0 0 1 27.65 11.6)"  >
<path style="stroke: none; stroke-width: 1; stroke-dasharray: none; stroke-linecap: butt; stroke-dashoffset: 0; stroke-linejoin: miter; stroke-miterlimit: 4; fill: rgb(146,148,151); fill-rule: nonzero; opacity: 1;"  transform=" translate(-206.25, -56.95)" d="M 206.2 55.7 c -0.7 0 -1.2 0.5 -1.2 1.2 c 0 0.7 0.6 1.3 1.2 1.3 c 0.7 0 1.3 -0.6 1.3 -1.3 C 207.5 56.2 206.9 55.7 206.2 55.7 z" stroke-linecap="round" />
</g>
		<g transform="matrix(1 0 0 1 51.6 -2.8)"  >
<path style="stroke: none; stroke-width: 1; stroke-dasharray: none; stroke-linecap: butt; stroke-dashoffset: 0; stroke-linejoin: miter; stroke-miterlimit: 4; fill: rgb(146,148,151); fill-rule: nonzero; opacity: 1;"  transform=" translate(-230.2, -42.55)" d="M 230.2 43.8 c 0.7 0 1.3 -0.6 1.3 -1.3 c 0 -0.7 -0.6 -1.2 -1.3 -1.2 c -0.7 0 -1.3 0.6 -1.3 1.2 C 229 43.3 229.6 43.8 230.2 43.8 z" stroke-linecap="round" />
</g>
		<g transform="matrix(1 0 0 1 58.15 -2.8)"  >
<path style="stroke: none; stroke-width: 1; stroke-dasharray: none; stroke-linecap: butt; stroke-dashoffset: 0; stroke-linejoin: miter; stroke-miterlimit: 4; fill: rgb(146,148,151); fill-rule: nonzero; opacity: 1;"  transform=" translate(-236.75, -42.55)" d="M 236.7 43.8 c 0.7 0 1.3 -0.6 1.3 -1.3 c 0 -0.7 -0.6 -1.2 -1.3 -1.2 c -0.7 0 -1.2 0.5 -1.2 1.2 C 235.5 43.3 236.1 43.8 236.7 43.8 z" stroke-linecap="round" />
</g>
		<g transform="matrix(1 0 0 1 61.45 -2.8)"  >
<path style="stroke: none; stroke-width: 1; stroke-dasharray: none; stroke-linecap: butt; stroke-dashoffset: 0; stroke-linejoin: miter; stroke-miterlimit: 4; fill: rgb(146,148,151); fill-rule: nonzero; opacity: 1;"  transform=" translate(-240.04, -42.55)" d="M 240 43.8 c 0.7 0 1.3 -0.6 1.3 -1.3 c 0 -0.7 -0.6 -1.2 -1.3 -1.2 c -0.7 0 -1.2 0.6 -1.2 1.2 C 238.7 43.3 239.3 43.8 240 43.8 z" stroke-linecap="round" />
</g>
		<g transform="matrix(1 0 0 1 19.55 -2.8)"  >
<path style="stroke: none; stroke-width: 1; stroke-dasharray: none; stroke-linecap: butt; stroke-dashoffset: 0; stroke-linejoin: miter; stroke-miterlimit: 4; fill: rgb(146,148,151); fill-rule: nonzero; opacity: 1;"  transform=" translate(-198.15, -42.55)" d="M 198.1 43.8 c 0.7 0 1.3 -0.6 1.3 -1.3 c 0 -0.7 -0.6 -1.2 -1.3 -1.2 c -0.7 0 -1.2 0.6 -1.2 1.2 C 196.9 43.3 197.5 43.8 198.1 43.8 z" stroke-linecap="round" />
</g>
		<g transform="matrix(1 0 0 1 16.3 -2.8)"  >
<path style="stroke: none; stroke-width: 1; stroke-dasharray: none; stroke-linecap: butt; stroke-dashoffset: 0; stroke-linejoin: miter; stroke-miterlimit: 4; fill: rgb(146,148,151); fill-rule: nonzero; opacity: 1;"  transform=" translate(-194.9, -42.55)" d="M 194.9 43.8 c 0.7 0 1.3 -0.6 1.3 -1.3 c 0 -0.7 -0.6 -1.2 -1.3 -1.2 c -0.7 0 -1.3 0.6 -1.3 1.2 C 193.6 43.3 194.2 43.8 194.9 43.8 z" stroke-linecap="round" />
</g>
		<g transform="matrix(1 0 0 1 146.05 -0.35)"  >
<linearGradient id="SVGID_7" gradientUnits="userSpaceOnUse" gradientTransform="matrix(1 0 0 1 0 0)"  x1="304.4557" y1="86.0725" x2="354.738" y2="10.502">
<stop offset="0%" style="stop-color:rgb(0,116,176);stop-opacity: 1"/>
<stop offset="50%" style="stop-color:rgb(33,181,186);stop-opacity: 1"/>
<stop offset="100%" style="stop-color:rgb(141,193,84);stop-opacity: 1"/>
</linearGradient>
<path style="stroke: none; stroke-width: 1; stroke-dasharray: none; stroke-linecap: butt; stroke-dashoffset: 0; stroke-linejoin: miter; stroke-miterlimit: 4; fill: url(#SVGID_7); fill-rule: nonzero; opacity: 1;"  transform=" translate(-324.65, -45)" d="M 318 40.8 h 7.4 c 4.3 0 7.7 -3.5 7.7 -7.7 v -7.4 c 0 -1 0.8 -1.8 1.8 -1.8 h 7.4 c 4.3 0 7.7 -3.5 7.7 -7.7 V 7.1 h -9.1 c -4.3 0 -7.7 3.5 -7.7 7.7 v 7.4 c 0 1 -0.8 1.8 -1.8 1.8 h -7.4 c -4.3 0 -7.7 3.5 -7.7 7.7 V 39 c 0 1 -0.8 1.8 -1.8 1.8 H 307 c -4.3 0 -7.7 3.5 -7.7 7.7 v 9.1 c 0 14 11.3 25.3 25.3 25.3 c 14 0 25.3 -11.3 25.3 -25.3 l 0 -16.9 h -9.1 c -4.3 0 -7.7 3.5 -7.7 7.7 v 9.1 c 0 4.7 -3.8 8.4 -8.4 8.4 s -8.4 -3.8 -8.4 -8.4 V 42.6 C 316.2 41.6 317 40.8 318 40.8 z" stroke-linecap="round" />
</g>
</g>
</g>
</svg>